<svg width="1339" height="719" viewBox="0 0 1339 719" fill="none" xmlns="http://www.w3.org/2000/svg">
<path d="M1039.03 35.1298C1101.6 29.2525 1147.08 65.9383 1162.76 125.234C1195.58 149.113 1202.5 167.019 1211.1 205.152C1225.98 194.467 1234.21 183.935 1245.7 170.04C1243.78 158.65 1242.56 145.053 1251.32 136.528C1260.64 134.948 1270.93 143.84 1275.03 142.906C1287.02 139.898 1294 130.321 1307.77 133.793C1332.17 138.348 1343.85 164.325 1335.64 186.981C1311.09 254.746 1236.83 306.522 1178.44 340.398C1193.15 410.926 1218.57 459.497 1157.75 519.86C1178.53 569.187 1202.4 536.683 1221.52 552.351C1250.27 575.913 1252.1 693.422 1187.47 619.711C1120.63 643.112 1089.52 617.661 1054.02 559.619C1038.49 559.943 998.381 554.8 990.604 559.352C959.762 580.814 938.023 613.035 935.456 650.224C934.843 659.126 932.597 676.471 928.51 684.178C889.051 707.059 784.815 694.458 853.452 647.511C840.734 586.193 856.728 547.575 898.959 503.874C895.63 500.417 892.426 496.845 889.349 493.161C845.612 439.855 848.39 383.904 854.32 320.355C798.914 277.478 751.18 219.946 729.733 152.766C721.153 125.894 720.559 94.7181 751.444 82.4283C769.553 75.2225 782.977 90.051 796.873 99.4535C797.95 100.182 809.815 94.8331 819.701 101.018C830.369 121.382 801.795 137.994 848.801 184.284C869.305 116.286 891.085 111.469 948.23 78.8316C986.345 57.0585 986.74 43.7264 1039.03 35.1298Z" fill="#171717"/>
<path d="M899.142 496.652C883.224 478.342 875.819 465.8 866.614 443.408C844.197 388.87 867.619 335.423 854.491 280.732C849.716 260.845 846.885 238.683 848.023 218.275C849.224 198.089 854.379 178.332 863.195 160.134C888.002 108.756 907.24 112.359 948.223 84.653C1004.76 46.4303 1039.39 20.1956 1109.21 55.3225C1139.06 75.0079 1148.89 94.6467 1158.18 128.402C1163.3 132.004 1169.61 136.183 1174.41 140C1195.2 161.945 1201.79 179.066 1205.52 209.141C1194.92 217.522 1188.46 222.13 1177.01 229.243C1167.43 234.65 1153.2 241.744 1146.09 249.435L1146.71 251.308C1171.31 246.203 1230.68 200.454 1245.46 178.59C1257.12 161.344 1244.3 152.636 1256.37 139.748C1267.71 138.348 1270.04 153.753 1280.1 158.37C1277.93 144.496 1289.06 142.2 1301.42 137.384C1325.95 145.588 1341.73 159.838 1330.35 188.077C1308.47 242.366 1256.94 284.531 1209.85 317.073C1200.1 323.734 1156.3 342.495 1158.31 348.282C1167.13 346.963 1165.65 345.883 1172.91 348.653C1180.46 359.685 1187.56 398.938 1190.85 413.779C1193.09 423.928 1191.88 443.103 1189.97 453.062C1185.68 475.623 1178.15 494.736 1159.41 509.007C1158.94 509.368 1152.72 515.158 1152.7 515.037C1154.87 533.646 1161.4 549.589 1182 552.563C1192.17 554.031 1215.27 550.687 1221.28 559.175C1233.31 576.19 1242.52 618.088 1230.02 636.018C1215.11 644.534 1199.25 629.039 1194.03 615.39C1185.54 615.546 1172.5 620.362 1163.43 622.717C1118.8 634.313 1077.99 597.979 1061 559.825C1059.36 556.147 1058.59 551.079 1055.05 550.6C1049.61 555.789 1051.48 555.438 1042.52 555.061C1018.66 554.059 1002.98 552.379 980.335 544.343C946.012 535.136 924.714 519.794 899.142 496.652Z" fill="#8ECCE8"/>
<path d="M1109.21 55.3225C1139.06 75.0079 1148.89 94.6467 1158.18 128.402C1150.99 131.46 1136.72 134.512 1128.63 136.485C1124.96 117.344 1109.64 68.3714 1109.21 55.3225Z" fill="#7DBCDD"/>
<path d="M899.143 496.652C971.148 478.292 945.436 508.845 980.335 544.343C946.012 535.136 924.715 519.794 899.143 496.652Z" fill="#7DBCDD"/>
<path d="M1174.41 140C1195.2 161.944 1201.79 179.066 1205.52 209.14C1194.92 217.522 1188.46 222.13 1177.01 229.243C1177.88 219.598 1178.49 212.32 1178.14 202.501C1177.41 182.149 1165.27 157.719 1174.41 140Z" fill="#7DBCDD"/>
<path d="M949.123 283.112C933.207 275.81 921.32 262.823 920.25 248.726C917.942 218.319 919.98 196.328 952.131 217.5C962.372 224.246 994.34 219.697 1006.31 233.25C1008.62 240.677 1006.45 245.229 1004.39 252.889C991.139 276.588 978.568 289.54 949.123 283.112Z" fill="#F2864D"/>
<path d="M949.123 283.112C933.207 275.81 921.32 262.823 920.25 248.726C917.942 218.319 919.98 196.328 952.131 217.5C962.372 224.246 994.34 219.697 1006.31 233.25C1008.62 240.677 1006.45 245.229 1004.39 252.889L1000.54 244.357C999.859 241.812 999.573 237.214 996.91 236.368C974.9 229.392 904.294 253.268 952.374 278.489L949.123 283.112Z" fill="#171717"/>
<path d="M1000.54 244.357L1004.39 252.889C991.139 276.588 978.568 289.54 949.123 283.112L952.374 278.489C980.696 281.077 990.952 268.514 1000.54 244.357Z" fill="#2F1F19"/>
<path d="M1099.34 411.585C1099.75 411.697 1100.19 411.738 1100.57 411.924C1107.26 415.213 1116.37 444.575 1119.47 452.148C1097.23 471.796 1085.47 475.759 1055.72 475.433C1055.06 475.025 1054.31 474.739 1053.74 474.21C1044.08 465.222 1040.59 434.762 1037.85 421.538C1058.53 419.768 1078.96 415.372 1099.34 411.585Z" fill="#7DBCDD"/>
<path d="M1042.35 252.702C980.055 240.232 1040.4 137.916 1072.27 187.576C1087.52 211.346 1071.23 239.603 1047.46 251.542L1042.35 252.702Z" fill="#171717"/>
<path d="M1038.04 185.56C1044.08 188.637 1046.25 190.426 1048.82 196.707C1048.12 203.276 1045.93 206.966 1042.41 212.488C1039.94 212.165 1036.95 211.947 1034.66 210.992C1030.35 209.203 1029.82 205.995 1028.69 201.944C1030.12 194.707 1033.2 190.98 1038.04 185.56Z" fill="white"/>
<path d="M904.478 138.588C908.002 138.756 911.782 138.865 915.167 139.96C922.689 142.402 928.986 148.765 931.947 155.993C936.526 167.159 934.405 180.469 929.751 191.263C924.129 204.299 915.888 212.003 902.86 217.252C899.509 216.748 895.891 216.085 892.724 214.868C885.703 212.168 879.711 205.351 876.912 198.515C872.348 187.377 874.165 174.539 878.688 163.696C884.34 150.147 891.533 144.182 904.478 138.588Z" fill="#171717"/>
<path d="M895.786 149.68C897.612 150.137 898.747 150.336 900.527 151.189C905.022 153.342 905.657 156.226 906.873 160.666C905.308 167.449 902.266 170.983 897.602 176.02C895.627 175.361 894.311 175.015 892.426 173.939C888.114 171.471 887.458 168.342 886.493 163.855C888.288 157.321 891.038 154.406 895.786 149.68Z" fill="white"/>
<path d="M955.712 418.822C969.91 418.685 993.476 415.789 1005.97 422.375C1019.14 429.317 1023.62 462.739 1027.41 476.864C1005.41 477.163 983.244 475.386 961.343 473.37C958.303 455.327 956.421 437.104 955.712 418.822Z" fill="#7DBCDD"/>
<path d="M1117.7 474.534C1122.41 474.453 1123.35 474.108 1127.23 476.65C1131.78 486.789 1131.56 500.237 1127.96 510.656C1125.02 519.119 1119.52 526.667 1111.18 530.398C1101.92 534.533 1087.73 532.946 1078.62 529.191C1072.41 520.799 1062.29 506.901 1062.15 496.41C1067.68 487.52 1104.59 479.733 1117.7 474.534Z" fill="#7DBCDD"/>
<path d="M955.55 342.943C971.335 341.941 986.688 343.506 1002.22 346.213C1003.46 358.416 1008.77 384.744 1003.18 394.896C986.616 394.968 970.119 393.384 953.721 391.197C952.284 375.422 949.325 357.965 955.55 342.943Z" fill="#7DBCDD"/>
<path d="M894.267 412.491C906.329 412.606 917.624 413.281 929.511 415.369C931.645 432.655 933.366 449.989 934.666 467.359C924.164 465.436 913.014 464.014 904.795 456.535C892.777 445.598 894.404 427.266 894.267 412.491Z" fill="#7DBCDD"/>
<path d="M1053.54 362L1078.57 360.896C1082.68 370.578 1085.75 380.821 1089.1 390.799L1067.5 394.271L1036.27 397.121C1035.2 385.481 1034.19 373.836 1033.25 362.187L1053.54 362Z" fill="#7DBCDD"/>
<path d="M912.037 339.266C917.024 338.416 920.767 338.124 925.778 338.917C930.519 348.357 927.589 374.788 927.013 385.587C923.115 387.952 916.865 386.857 912.439 386.657C906.22 385.092 900.872 384.794 896.809 379.243C892.812 373.789 892.012 366.449 893.729 360.071C896.946 348.117 901.815 344.838 912.037 339.266Z" fill="#7DBCDD"/>
<path d="M1042.35 252.702L1047.46 251.542C1062.4 255.369 1071.62 255.618 1080.92 267.335C1082.49 273.828 1082.83 270.701 1079.23 276.943C1065.64 285.925 1043.43 284.961 1030.22 275.701C1022.8 263.15 1032.55 258.776 1042.35 252.702Z" fill="#89AFED"/>
<path d="M1139.2 162.555C1144.36 162.287 1148.07 161.82 1152.76 164.474C1163.27 180.205 1163.15 203.991 1165.19 222.351C1156.03 222.768 1146.8 222.69 1137.63 222.809C1132.99 221.244 1130.41 220.173 1127.03 216.371L1127.68 212.952C1133.88 207.389 1141.52 205.469 1149.27 202.865C1147.25 189.253 1142.86 175.812 1139.2 162.555Z" fill="#7DBCDD"/>
<path d="M859.786 214.952C869.11 213.219 879.898 214.759 888.998 217.199C894.775 218.748 898.184 220.64 901.364 225.696C901.718 231.442 900.371 234.031 897.481 238.928C890.448 241.386 883.992 242.693 876.52 241.492C870.099 240.462 864.49 238.188 860.884 232.503C857.192 226.685 858.327 221.299 859.786 214.952Z" fill="#89AFED"/>
<path d="M1112.36 346.369C1116.41 346.303 1120.18 345.886 1123.81 347.98C1131.61 352.467 1132.66 371.574 1133.97 379.862C1128.39 381.076 1125.73 382.311 1120.22 380.491C1116.99 376.122 1115.95 373.599 1115.28 368.226L1112.36 346.369Z" fill="#7DBCDD"/>
<path d="M814.808 279.068C790.882 254.998 773.323 231.144 752.751 196.051C737.859 170.653 700.316 72.3789 776.335 89.0991C784.831 90.9659 788.835 102.658 792.213 111.18C801.409 106.812 800.466 103.06 810.704 102.518C817.577 106.513 814.985 103.869 818.911 110.623C819.228 121.936 810.16 128.137 810.732 132.431C812.923 148.781 833.788 176.444 844.415 186.882L846.269 188.687C837.185 241.324 844.097 262.531 854.737 314.142C840.383 302.991 827.314 292.418 814.808 279.068Z" fill="#8ECCE8"/>
<path d="M814.808 279.068C834.515 249.012 816.556 210.335 846.269 188.687C837.185 241.324 844.097 262.531 854.737 314.142C840.383 302.991 827.314 292.418 814.808 279.068Z" fill="#7DBCDD"/>
<path d="M902.026 508.855C928.65 533.574 954.29 545.917 989.338 554.871C968.435 570.761 955.155 582.397 941.697 605.262C938.654 612.938 934.143 624.515 933.204 632.568C927.791 678.901 934.529 684.978 883.161 689.819C878.09 693.602 870.369 691.337 864.769 690L863.46 689.791C850.266 687.582 838.059 688.382 837.399 671.814C842.383 660.218 848.823 657.265 859.64 652.06C858.199 644.027 857.051 635.943 856.205 627.829C851.803 586.221 860.766 556.499 886.982 524.256L902.026 508.855Z" fill="#8ECCE8"/>
<path d="M902.026 508.855C928.649 533.574 954.29 545.917 989.338 554.871C968.435 570.761 955.155 582.397 941.697 605.262C930.248 567.958 927.822 541.704 886.981 524.256L902.026 508.855Z" fill="#7DBCDD"/>
<path d="M864.77 690C871.324 689.474 876.706 688.609 883.161 689.819C878.091 693.603 870.369 691.338 864.77 690Z" fill="#556074"/>
<path d="M567.401 80.8229C576.781 80.2255 585.719 79.8241 594.389 84.236C603.787 89.0181 609.349 97.4249 611.947 107.468C627.775 168.671 582.542 257.892 546.599 307.144C534.519 323.693 518.04 336.975 511.221 356.854C488.433 423.278 511.489 463.137 468.022 533.048C477.769 539.116 486.949 545.226 494.857 553.642C521.232 581.713 522.327 615.175 521.493 651.559C529.918 655.884 539.904 661.556 544.598 670.152C546.869 674.312 547.274 678.783 545.311 683.139C542.906 688.481 536.628 692.066 531.473 694.175C510.932 702.579 475.952 703.621 455.6 694.178C434.079 684.194 441.016 659.876 434.306 641.78C426.958 621.967 404.357 609.18 386.317 600.583C338.76 614.553 302.424 618.417 253.672 606.432C226.038 630.249 191.503 658.995 153.435 661.437C124.18 663.311 103.588 646.285 83.14 627.944C30.6211 652.309 18.3236 624.161 49.9276 579.995C51.5267 577.845 53.1412 575.711 54.7745 573.586C66.4654 558.397 79.8486 544.856 99.6467 555.014C134.023 572.653 141.097 561.8 159.955 532.877C145.608 501.954 143.225 489.96 142.133 456.469C126.986 463.989 120.624 468.258 106.936 478.339C104.008 488.426 98.2343 504.941 87.5638 508.833C79.0367 508.341 69.0475 495.909 66.8543 496.413C30.8949 504.683 8.10416 463.196 30.5029 431C59.3724 389.498 111.204 368.475 160.976 357.414C141.321 281.37 136.751 213.966 213.762 170.877C235.178 116.678 282.299 84.0524 341.432 92.8917C395.926 101.037 414.489 134.254 456.584 162.001C480.158 177.539 486.9 185.896 502.93 208.387C515.551 184.62 520.744 164.06 526.738 138.383C522.501 128.476 516.077 112.537 519.645 102.123C524.15 98.5077 527.261 98.0503 533.641 98.7814C552.534 100.947 546.605 90.7543 567.401 80.8229Z" fill="#171717"/>
<path d="M290.142 101.93C325.056 92.4595 354.321 96.4575 386.139 114.046C403.943 123.887 416.981 137.138 431.867 150.679C473.992 179.872 498.267 195.448 513.539 247.793C530.117 299.419 506.635 340.109 497.807 387.41C489.261 433.209 500.694 470.713 472.96 516.503C429.546 588.181 338.598 627.017 258.006 601.51C188.816 579.616 147.985 529.026 147.835 456.348C164.009 453.302 174.412 452.369 191.012 452.459C200.494 453.025 210.126 454.335 219.2 452.129C214.733 447.524 212.104 447.017 205.574 446.361C162.329 442.008 135.531 449.329 102.235 475.306C99.2766 486.407 95.1732 502.11 82.2286 504.673C75.201 499.107 78.4582 491.68 72.8025 487.742C60.7942 491.497 53.636 494.925 41.6775 488.242C22.931 477.766 23.7149 451 34.737 435.07C62.4804 394.983 111.431 373.073 157.831 363.571C174.157 360.23 190.443 360.967 206.747 357.579C196.826 353.114 177.461 355.756 167.033 357.218C157.666 322.079 153.864 304.045 154.642 266.933C157.924 226.583 177.825 198.736 211.379 177.704L215.685 175.037C220.227 171.581 223.356 163.703 226.044 158.538C242.022 127.848 257.322 113.206 290.142 101.93Z" fill="#8ECCE8"/>
<path d="M211.379 177.704C206.464 203.179 192.194 235.612 185.085 269.115C174.941 268.327 164.793 267.599 154.642 266.933C157.924 226.582 177.824 198.736 211.379 177.704Z" fill="#7DBCDD"/>
<path d="M215.685 175.037C220.227 171.58 223.356 163.702 226.044 158.538C242.022 127.847 257.321 113.206 290.142 101.93C268.21 134.313 258.432 148.516 245.416 186.673C237.517 183.525 223.297 177.349 215.685 175.037Z" fill="#7DBCDD"/>
<path d="M191.012 452.459C200.494 453.025 210.125 454.335 219.2 452.129C214.686 464.027 212.791 467.474 206.112 478.373L191.012 452.459Z" fill="#7DBCDD"/>
<path d="M323.755 260.58C325.728 260.689 327.7 260.77 329.663 260.985C339.357 262.055 347.847 267.951 353.627 275.679C361.566 286.289 363.918 299.988 361.286 312.847C358.449 326.708 350.877 333.749 339.494 340.837C337.083 340.495 334.672 340.137 332.295 339.611C321.528 337.218 313.321 329.661 307.933 320.271C301.833 309.487 300.206 296.743 303.407 284.774C306.779 272.49 313.328 266.778 323.755 260.58Z" fill="#171717"/>
<path d="M317.111 273.47C319.173 274.344 321.678 275.228 323.541 276.541C328.08 279.733 328.702 282.72 329.996 287.683C328.544 294.447 326.313 297.247 321.563 302.191C319.615 301.727 318.402 301.553 316.545 300.545C313.371 298.821 311.02 295.097 310.326 291.668C308.917 284.705 313.272 278.784 317.111 273.47Z" fill="white"/>
<path d="M246.788 457.91C267.768 465.113 287.507 473.05 309.178 478.242C303.087 495.037 297.076 511.755 289.735 528.061C288.543 528.266 287.339 528.391 286.132 528.475C264.601 529.984 241.941 510.6 227.681 496.979L246.788 457.91Z" fill="#7DBCDD"/>
<path d="M461.268 309.82L459.925 309.076C396.035 274.149 465.129 185.497 492.574 266.28C496.282 277.198 488.368 294.658 481.611 303.884C472.975 307.885 470.984 309.089 461.268 309.82Z" fill="#171717"/>
<path d="M446.899 247.845L453.535 249.015C457.448 252.394 459.884 254.028 460.229 259.712C460.6 265.835 456.692 270.91 453.242 275.527C452.813 275.399 452.377 275.303 451.96 275.144C446.205 272.976 444.348 270.07 441.76 264.877C441.561 257.802 443.402 253.903 446.899 247.845Z" fill="white"/>
<path d="M436.229 316.823C438.428 316.942 440.693 317.81 442.814 318.391C443.928 320.121 445.101 321.814 445.711 323.808C448.144 331.777 443.437 345.14 439.831 352.277C434.418 362.986 425.399 372.778 413.609 376.269C402.917 379.433 392.965 376.888 383.302 372.047C376.321 365.846 369.328 356.449 365.949 347.616C363.884 342.212 365.256 339.483 367.281 334.586C378.726 324.39 397.749 326.836 412.116 324.53C420.192 323.236 428.541 319.614 436.229 316.823Z" fill="#171717"/>
<path d="M376.06 337.256C389.704 336.584 406.665 340.177 417.675 348.631C422.126 352.047 423.856 355.255 424.357 360.731L418.972 366.732C412.557 369.218 404.45 371.645 397.637 369.697C389.48 367.364 380.057 362.731 376.193 354.682C373.179 348.4 373.558 343.376 376.06 337.256Z" fill="#F2864D"/>
<path d="M337.381 476.97L390.886 478.809C390.249 492.38 391.527 517.433 383.688 528.662C380.841 532.741 378.539 532.33 374.053 533.148C354.177 533.192 334.457 533.217 314.628 531.692L337.381 476.97Z" fill="#7DBCDD"/>
<path d="M356.887 403.692C371.773 402.674 386.842 403.032 401.763 402.948C401.598 416.087 402.798 432.217 398.695 444.74C396.623 451.071 394.978 451.955 389.446 454.733C373.705 454.827 358.496 454.708 342.841 452.639C343.65 445.633 344.587 438.641 345.651 431.669C347.246 421.819 348.295 409.877 356.887 403.692Z" fill="#7DBCDD"/>
<path d="M417.824 476.758L454.835 476.792C453.363 493.867 451.606 511.867 440.456 525.575C428.964 528.049 417.538 529.038 405.834 529.987C410.146 512.315 414.144 494.571 417.824 476.758Z" fill="#7DBCDD"/>
<path d="M279.736 410.54C293.974 411.946 308.244 413.017 322.533 413.751C320.582 424.373 319.973 441.939 313.272 450.216C296.031 448.059 280.856 441.809 265.105 434.749C269.351 426.128 274.31 418.455 279.736 410.54Z" fill="#7DBCDD"/>
<path d="M424.432 402.833C431.662 404.003 439.81 405.07 446.579 407.929C451.852 410.157 456.556 415.042 458.114 420.621C460.323 428.523 454.863 441.79 450.968 448.402C441.536 450.984 431.102 451.606 421.374 452.82C422.139 436.159 423.399 419.482 424.432 402.833Z" fill="#7DBCDD"/>
<path d="M299.188 340.88C303.578 340.644 308.098 340.373 312.478 340.784C320.287 341.518 333.203 344.965 337.789 351.521C339.814 354.421 338.98 355.364 338.629 358.687C334.644 364.11 329.89 365.979 323.955 368.742C312.827 369.579 297.393 370.239 288.552 362.233C285.037 359.05 285.541 357.744 285.388 353.291C288.655 347.209 293.586 344.489 299.188 340.88Z" fill="#89AFED"/>
<path d="M461.268 309.82C470.984 309.089 472.975 307.885 481.611 303.884C493.162 305.921 507.603 306.183 506.859 320.747C494.851 339.2 451.251 344.536 461.268 309.82Z" fill="#89AFED"/>
<path d="M220.811 207.862L229.982 212.413C234.459 223.505 221.658 243.953 218.425 256.044L224.52 259.062C227.214 260.384 230.542 261.641 232.869 263.551C236.599 266.616 236.257 270.135 236.397 274.528C224.75 274.954 213.162 274.099 201.539 273.408C205.132 250.795 213.174 229.339 220.811 207.862Z" fill="#7DBCDD"/>
<path d="M209.936 292.157L213.09 294.347C218.46 306.108 217.324 330.554 216.854 343.758C213.588 341.938 210.978 341.148 209.307 337.589C204.323 326.973 206.187 302.963 209.936 292.157Z" fill="#7DBCDD"/>
<path d="M508.253 216.695L505.07 211.555C514.232 188.808 527.73 177.103 528.365 149.82C528.661 137.11 527.298 120.091 525.332 106.7C526.554 105.123 527.777 103.545 529 101.968C537.58 100.163 542.42 105.204 549.354 110.185C555.156 103.523 548.459 87.4191 573.421 85.2661C606.754 82.3943 611.11 112.913 609.389 137.729C605.902 188.071 585.793 238.869 558.401 280.72C552.158 294.189 527.964 323.392 518.388 335.106C529.88 289.777 526.614 259.401 508.253 216.695Z" fill="#8ECCE8"/>
<path d="M508.253 216.695C532.512 222.749 545.88 255.596 553.741 276.762L558.401 280.72C552.158 294.189 527.964 323.392 518.388 335.106C529.88 289.777 526.614 259.401 508.253 216.695Z" fill="#7DBCDD"/>
<path d="M162.341 538.671C186.479 572.842 208.393 591.23 248.58 605.244C240.603 611.691 225.767 624.391 217.657 629.469C158.798 667.576 133.195 668.217 82.8197 620.564C73.0389 628.271 53.7199 638.109 41.8797 630.962C28.1013 610.147 61.0369 568.203 76.5573 559.218C103.131 543.835 107.785 587.494 146.759 559.296C151.985 552.563 157.548 545.687 162.341 538.671Z" fill="#8ECCE8"/>
<path d="M162.341 538.671C186.479 572.842 208.393 591.23 248.58 605.244C240.603 611.691 225.767 624.391 217.657 629.469C215.041 625.048 206.61 619.17 202.473 615.468C182.662 597.73 162.914 580.59 146.759 559.296C151.985 552.563 157.548 545.687 162.341 538.671Z" fill="#7DBCDD"/>
<path d="M466.796 538.776C471.254 541.331 475.731 544.498 480.03 547.389C516.556 577.254 521.229 610.041 515.025 655.653C526.8 660.404 534.917 662.166 540.162 673.799C538.379 701.714 466.775 700.874 449.173 683.568C441.411 666.77 447.244 655.003 435.024 633.352C421.482 615.993 411.493 609.982 392.392 598.965C425.732 582.46 443.34 567.273 466.796 538.776Z" fill="#8ECCE8"/>
<path d="M466.796 538.776C471.254 541.331 475.731 544.498 480.03 547.389C464.603 565.764 439.902 610.399 435.024 633.352C421.482 615.993 411.493 609.982 392.392 598.965C425.732 582.46 443.34 567.273 466.796 538.776Z" fill="#7DBCDD"/>
<path d="M677.277 459.91C748.408 454.167 810.758 507.125 816.631 578.272C822.501 649.418 769.678 711.888 698.565 717.889C627.271 723.91 564.629 670.899 558.744 599.569C552.858 528.238 605.958 465.67 677.277 459.91Z" fill="#8D3B11"/>
<path d="M589.401 588.337C591.442 411.582 814.291 437.845 810.353 595.449C810.107 605.235 807.808 618.445 804.274 627.577C800.276 643.491 790.71 660.98 780.41 673.236C720.198 744.887 614.678 707.535 593.866 621.687C591.106 610.312 590.434 599.681 589.401 588.337Z" fill="#8D3B11"/>
<path d="M589.401 588.337C591.442 411.582 814.291 437.845 810.353 595.449C810.107 605.235 807.808 618.445 804.274 627.577L801.39 626.74C801.763 625.203 802.106 623.66 802.414 622.107C805.584 606.837 813.965 564.33 794.048 560.668C790.172 579.314 796.886 594.289 788.343 619.618L786.196 617.409C787.484 610.496 788.928 601.971 789.391 594.964C791.392 567.631 782.522 540.615 764.712 519.788C748.949 501.565 726.588 490.355 702.556 488.634C679.612 487.091 656.999 494.726 639.68 509.857C615.959 530.924 609.318 558.773 607.507 589.049C599.779 590.779 596.457 591.33 589.401 588.337Z" fill="#FBC660"/>
<path d="M786.196 617.409L788.343 619.618C796.886 594.289 790.172 579.314 794.048 560.668C813.965 564.33 805.584 606.837 802.414 622.107C802.106 623.66 801.763 625.203 801.39 626.74L804.274 627.577C800.276 643.491 790.71 660.98 780.41 673.236C720.198 744.886 614.678 707.535 593.866 621.687C591.106 610.312 590.434 599.681 589.401 588.337C596.457 591.33 599.779 590.779 607.507 589.049C614.662 643.622 648.419 696.53 710.305 688.718C733.478 685.731 754.421 673.394 768.271 654.568C776.674 643.351 782.351 630.853 786.196 617.409Z" fill="#FED372"/>
<path d="M621.167 547.641C629.386 526.194 642.098 509.614 663.632 500.137C683.784 491.5 706.544 491.263 726.871 499.477C749.721 508.659 767.92 526.645 777.38 549.392C784.118 565.584 787.074 589.78 783.095 606.625C778.954 626.339 774.758 639.073 761.903 655.159C756.468 661.22 750.324 666.602 743.605 671.195C726.641 682.865 705.654 687.115 685.489 682.971C640.209 673.251 604.987 620.754 614.849 575.705C615.879 562.177 616.47 560.301 621.167 547.641Z" fill="#A65315"/>
<path d="M621.167 547.641C629.387 526.194 642.098 509.614 663.632 500.137C683.784 491.5 706.544 491.263 726.871 499.477C749.721 508.659 767.92 526.645 777.38 549.392C784.118 565.584 787.074 589.78 783.095 606.625C780.149 601.591 749.82 580.278 743.381 575.359C721.038 557.13 722.525 556.844 693.705 549.7C707.602 548.478 720.494 555.279 729.521 545.064C732.664 518.907 712.34 533.528 702.375 524.175C700.07 522.009 701.862 514.928 694.682 510.575C686.83 510.778 682.273 513.877 675.161 517.389L681.619 531.101C671.957 537.435 667.203 540.08 660.813 550.266L658.962 556.741L655.525 558.319C648.034 557.354 637.192 547.566 630.192 542.283L621.167 547.641Z" fill="#FBC660"/>
<path d="M630.192 542.283C640.334 529.645 657.989 509.241 675.161 517.389L681.619 531.101C671.957 537.436 667.203 540.08 660.813 550.267L658.962 556.741L655.525 558.319C648.034 557.354 637.192 547.566 630.192 542.283Z" fill="#FCD773"/>
<path d="M614.849 575.705C621.208 586.669 667.894 616.809 685.604 621.64C686.643 621.917 687.685 622.179 688.731 622.421C677.23 623.227 680.001 621.544 672.09 626.855C663.566 647.387 695.229 654.543 707.844 646.771L707.642 653.077C701.218 654.981 703.725 653.171 699.918 658.768L701.016 663.139C707.063 666.733 707.253 666.842 714.408 666.73C720.913 664.123 720.605 664.356 724.628 658.606L725.471 653.174C738.901 653.379 748.588 653.743 761.903 655.159C756.468 661.22 750.324 666.602 743.605 671.195C726.641 682.865 705.654 687.115 685.489 682.971C640.209 673.251 604.987 620.754 614.849 575.705Z" fill="#FBC660"/>
<path d="M630.192 542.283C637.192 547.566 648.034 557.354 655.525 558.319L658.962 556.741C660.847 595.698 692.187 588.679 714.365 608.19L715.855 609.478C713.88 618.059 715.678 615.34 709.776 621.155C701.94 624.201 697.146 623.069 688.731 622.422C687.686 622.179 686.643 621.917 685.604 621.64C667.894 616.809 621.208 586.669 614.849 575.705C615.879 562.177 616.47 560.301 621.167 547.641L630.192 542.283Z" fill="#FED372"/>
<path d="M630.192 542.283C637.192 547.566 648.034 557.354 655.525 558.319L658.962 556.741C660.847 595.698 692.187 588.679 714.365 608.19L715.855 609.478C679.429 609.945 652.999 579.345 625.377 559.013C619.453 562.771 617.839 568.956 614.849 575.705C615.879 562.177 616.47 560.301 621.167 547.641L630.192 542.283Z" fill="#FBC660"/>
<path d="M672.184 579.252C671.073 571.539 668.46 567.407 669.838 559.971C676.502 557.283 675.419 558.537 684.114 560.739L685.757 562.354C705.486 581.483 738.945 579.373 740.494 613.492C741.163 628.215 725.207 632.362 718.711 645.414C718.969 653.264 720.497 655.349 716.543 660.52C710.685 658.392 712.243 658.631 707.642 653.077L707.845 646.771C699.734 637.396 682.086 649.263 675.289 635.122C679.19 617.496 695.236 639.643 719.635 621.398C728.209 602.979 686.653 589.556 674.057 580.599L672.184 579.252Z" fill="#FED372"/>
<path d="M743.381 575.359C749.82 580.278 780.149 601.591 783.095 606.625C778.954 626.339 774.758 639.073 761.903 655.159C748.588 653.743 738.901 653.379 725.471 653.174C723.24 649.618 723.698 651.615 723.598 647.262C742.886 628.909 750.458 613.109 736.754 588.371L743.381 575.359Z" fill="#FED372"/>
<path d="M683.284 536.704C686.612 530.236 684.805 526.275 683.377 519.343C686.958 515.554 684.982 517.215 691.273 515.837C697.277 523.892 696.652 530.469 704.423 531.72C712.004 532.943 718.35 531.048 723.913 536.051C725.437 543.204 726.168 540.223 723.169 545.553C715.127 547.806 705.956 543.854 691.649 545.995C686.323 552.053 685.605 552.865 684.114 560.739C675.419 558.537 676.502 557.283 669.838 559.971C668.46 567.407 671.073 571.539 672.184 579.252C658.53 561.225 664.204 546.468 683.284 536.704Z" fill="#FCD773"/>
<path d="M693.705 549.7C722.525 556.844 721.038 557.13 743.381 575.359L736.754 588.371C719.504 572.985 704.279 572.687 692.993 561.035C691.086 554.28 691.276 557.009 693.705 549.7Z" fill="#FED372"/>
<path d="M610.425 673.933C621.877 678.13 633.521 692.862 644.095 699.903C651.735 704.99 660.922 706.841 668.317 711.863L666.534 713.222C652.603 710.936 640.138 705.989 627.787 699.2C620.041 694.94 609.038 688.354 606.421 679.589L610.425 673.933Z" fill="#DD952D"/>
<path d="M593.278 508.553L601.258 509.838C601.351 510.317 601.497 510.787 601.534 511.272C602.172 519.611 595.468 530.183 589.918 536.144C585.98 540.376 581.939 539.374 576.582 539.495C577.201 535.27 577.403 532.619 579.991 529.082L588.375 527.881C585.837 525.799 586.801 526.474 584.266 524.81L582.589 523.727C583.808 517.769 589.33 512.984 593.278 508.553Z" fill="#F2AF41"/>
<path d="M578.964 638.603C583.189 637.941 585.115 637.732 589.383 637.577C594.79 641.036 594.836 641.369 598.009 647.147C598.37 654.963 599.17 651.892 595.502 658.868C583.652 662.138 580.625 647.645 577.533 638.47L578.964 638.603Z" fill="#FBC660"/>
<path d="M638.337 472.913L639.979 474.655C628.948 485.237 615.814 498.441 602.297 505.638L598.361 504.362L599.039 500.756C609.772 488.177 623.703 480.171 638.337 472.913Z" fill="#F2AF41"/>
<path d="M577.533 638.47C573.934 632.869 572.817 631.954 572.092 625.586C575.281 620.15 572.991 622.051 579.611 620.25C587.261 622.443 585.289 620.723 589.725 626.13C588.885 635.184 587.274 635.281 578.964 638.603L577.533 638.47Z" fill="#FBC660"/>
<path d="M567.634 588.716C569.532 585.994 572.777 584.541 576.071 584.949C579.363 585.353 582.162 587.55 583.341 590.652C584.521 593.754 583.886 597.254 581.693 599.746C578.56 603.309 573.19 603.803 569.457 600.876C565.724 597.945 564.925 592.612 567.634 588.716Z" fill="#FED372"/>
<path d="M583.447 604.332C585.703 607.437 585.541 608.165 585.718 612.061C582.262 616.952 576.249 618.968 570.96 621.42C569.554 616.426 568.487 612.472 568.901 607.263C573.639 604.065 577.807 604.687 583.447 604.332Z" fill="#F2AF41"/>
<path d="M566.683 568.11C570.276 568.841 574.354 569.429 577.745 570.814C583.233 573.054 583.684 577.92 585.271 582.942C580.091 583.471 575.533 583.492 570.35 582.988C565.83 577.827 566.907 574.824 566.683 568.11Z" fill="#FED372"/>
<path d="M567.668 554.33C572.41 554.153 576.329 554.778 580.952 555.789C585.703 560.814 585.485 562.681 586.679 569.314C582.106 569.467 577.751 568.322 573.302 567.394C568.449 562.398 568.751 560.985 567.668 554.33Z" fill="#FBC660"/>
<path d="M601.167 659.667C601.824 660.156 602.521 660.597 603.143 661.133C607.871 665.183 609.909 667.141 610.469 673.264L605.675 677.924C601.245 675.46 598.339 673.251 594.759 669.658L594.818 665.016L601.167 659.667Z" fill="#F2AF41"/>
<path d="M572.186 540.307C576.886 540.264 581.126 540.643 585.765 541.399C589.367 545.923 588.605 547.535 588.617 553.172C583.942 553.334 580.094 552.874 575.52 551.906C571.734 547.339 572.357 546.063 572.186 540.307Z" fill="#FBC660"/>
<path d="M1226.21 16.073C1229.01 26.1568 1231.71 33.5588 1235.41 43.3564C1242.77 48.9288 1251.35 52.3108 1259.8 56.1999C1232.3 67.6247 1236.8 70.2382 1225.65 95.7915C1220.72 69.2177 1215.88 67.4255 1192.01 57.6622C1216.82 44.6568 1218.14 42.9953 1226.21 16.073Z" fill="#8ECCE8"/>
<path d="M634.579 322.222C636.598 324.157 635.941 323.099 636.906 325.694C638.302 329.459 639.662 333.208 641.292 336.885C648.04 352.09 657.195 354.947 671.789 360.438C665.598 362.087 659.466 364.172 654.047 367.678C643.451 374.542 640.346 384.865 637.609 396.393L636.526 398.045L633.409 389.028C628.239 373.674 623.314 370.139 609.277 362.722C610.074 354.601 625.019 349.334 629.212 341.851C632.28 336.375 633.294 328.351 634.579 322.222Z" fill="#8ECCE8"/>
<path d="M32.9884 249.721C40.0067 256.688 37.322 268.772 43.799 276.165C49.3053 282.446 60.7753 282.643 65.3017 289.808C59.5185 292.297 52.5625 294.82 47.7281 298.849C40.1778 305.137 38.3704 314.086 37.1478 323.289L36.818 325.837C33.8657 323.802 33.1035 320.965 31.6943 317.844C23.836 300.408 17.4275 295.999 0 289.379C6.17522 286.855 13.0971 284.273 18.6252 280.53C29.1993 273.374 30.6552 261.255 32.9884 249.721Z" fill="#8ECCE8"/>
<path d="M899.876 0C902.975 9.25309 905.8 15.0804 909.968 23.8606L928.497 31.8816C920.346 35.4846 914.541 39.2121 906.991 43.8013C904.891 51.2561 903.152 59.7592 901.416 67.3851C889.856 56.9528 903.918 47.7433 877.269 36.4398L874.55 35.301L874.572 32.2022C877.142 30.967 879.662 29.6384 882.135 28.2196C896.103 20.1706 895.649 15.6593 899.876 0Z" fill="#8ECCE8"/>
<path d="M1271.09 355.6C1272.7 358.267 1273.76 361.331 1274.85 364.243C1280.13 378.297 1286.25 381.293 1299.22 387.706C1294.3 389.554 1288.83 391.321 1284.36 394.121C1275.43 399.719 1274.36 408.583 1272.44 418.075L1270.98 417.886C1266.3 414.13 1268.63 407.298 1266.91 401.769C1264.88 395.26 1253.75 391.782 1248.04 388.873L1266.3 377.485L1271.09 355.6Z" fill="#8ECCE8"/>
<path d="M410.626 28.0547C420.848 38.1198 410.358 45.2603 432.405 54.2987L434.77 55.2539C421.75 73.1285 420.326 55.7859 412.287 89.4567C407.384 84.964 408.429 74.8274 408.227 68.2718C402.739 65.3534 395.049 62.1238 391.674 57.3043C406.846 44.2336 407.602 48.7326 410.626 28.0547Z" fill="#8ECCE8"/>
</svg>
