<svg width="596" height="193" viewBox="0 0 596 193" fill="none" xmlns="http://www.w3.org/2000/svg">
<path d="M53.965 0.689002C57.965 0.123002 62.6381 0.374015 66.6291 0.915015C80.3511 2.77501 92.103 9.34699 100.494 20.416C108.43 30.909 111.87 44.125 110.058 57.155C118.754 48.359 123.251 44.974 129.525 33.799C126.297 25.81 129.43 17.088 131.369 9.12601L128.688 5.18C133.917 6.506 138.081 8.46602 142.315 11.769C143.07 8.61802 143.906 6.18101 142.809 2.98301C142.749 2.81101 142.685 2.64 142.624 2.469L142.971 1.93201C144.504 2.35801 145.807 3.04702 147.16 3.88502C154.992 8.73402 159.302 17.667 161.373 26.322C162.022 26.552 162.67 26.788 163.316 27.028C174.641 31.244 181.976 38.696 186.924 49.641C189.078 54.406 194.468 65.826 192.458 70.611C191.495 72.905 189.698 74.769 187.823 76.354C181.07 82.067 172.543 82.561 164.126 84.016C161.988 84.385 159.423 84.637 157.438 85.512C156.425 85.959 156.222 86.009 155.808 87.064C159.563 90.943 177.477 83.388 186.335 88.999C189.325 90.893 191.055 93.71 191.728 97.153C192.164 99.385 192.207 101.912 190.744 103.802C189.672 105.188 188.002 105.872 186.309 106.118C182.038 106.738 179.677 105.378 176.452 102.853C173.399 104.362 170.545 105.99 167.68 107.831C171.707 109.906 174.575 112.162 177.673 115.463C178.397 118.162 178.863 120.689 178.987 123.477C179.794 141.727 171.756 160.051 159.434 173.262C150.361 182.99 133.268 193.369 119.58 192.867C114.638 192.686 109.868 190.144 105.081 190.115C102.051 190.096 99.0711 191.223 96.0171 191.259C78.2561 191.466 59.772 185.087 47.128 172.39C28.309 153.491 24.832 126.503 35.29 102.438C40.448 90.57 49.8951 78.3 49.6341 64.811C49.5221 59.008 47.2991 54.243 43.1651 50.226L42.692 49.774C38.796 47.343 33.808 47.726 31.624 46.229C34.931 44.881 39.271 45.54 42.585 46.626C47.158 48.125 51.0961 52.432 53.2071 56.638C61.8761 73.916 46.8771 94.487 41.7641 110.551C37.0851 125.25 38.066 140.082 45.305 153.746C55.043 172.126 71.42 181.12 90.676 186.95C86.055 184.341 81.7221 181.252 77.7501 177.734C66.0751 167.202 59.53 152.465 58.831 136.822C57.884 115.614 66.269 96.467 80.3 80.823C84.87 75.728 90.174 71.335 94.701 66.229C99.328 61.011 100.732 55.064 100.25 48.235C99.4701 37.457 94.4411 27.43 86.2691 20.359C77.6501 13.005 65.9701 9.91302 54.7891 10.903C40.9291 12.131 27.9531 18.07 19.0501 28.924C11.4301 38.213 7.20405 50.659 8.40205 62.683C9.09205 69.608 11.4951 77.566 17.1491 82.014C20.7231 84.825 26.0051 86.428 30.5391 85.868C36.7141 85.106 40.671 80.99 44.383 76.445C43.677 78.117 42.9401 79.762 41.9471 81.288C39.1011 85.663 34.8861 88.883 29.6851 89.778C23.5371 90.829 17.2291 89.281 12.2661 85.504C5.68306 80.535 1.94006 72.273 0.807059 64.258C-1.19094 50.113 2.77405 34.608 11.482 23.282C21.973 9.64002 37.237 2.862 53.965 0.689002ZM139.643 44.667C137.323 42.911 135.217 41.134 133.151 39.081C122.533 60.206 111.992 63.89 96.089 78.736C74.367 99.014 60.5681 125.407 70.4011 155.342C74.6031 168.134 82.7281 180.171 94.9971 186.321C98.4941 188.074 102.125 189.075 105.888 190.075C91.3471 182.368 81.9381 172.088 76.9761 156.2C73.0071 143.49 71.865 123.525 78.486 111.451C81.308 106.306 92.4681 93.758 97.8071 92.369C98.1161 92.289 98.4411 92.293 98.7591 92.255C99.4011 93.017 100.029 93.762 100.592 94.585C107.289 102.132 122.294 102.721 131.534 105.161C130.079 102.859 128.801 100.509 127.537 98.099C133.487 103.77 139.171 108.444 147.89 108.417C159.581 108.38 165.206 100.46 174.317 98.621C179.521 97.571 181.819 102.71 186.552 100.895C187.337 99.928 187.561 99.706 187.441 98.377C187.226 95.999 184.632 93.345 182.759 92.103C178.074 88.993 164.451 93.714 157.965 93.106C147.647 92.139 142.976 84.722 131.424 84.4C142.816 80.781 147.473 87.105 151.935 86.345C152.059 85.108 152.234 84.417 151.426 83.336C149.024 80.125 143.69 79.769 141.439 75.839L141.756 75.399C141.902 75.505 142.047 75.612 142.194 75.716C149.322 80.736 158.547 81.577 166.964 80.035C167.745 79.892 168.414 79.679 169.162 79.42C168.687 78.416 167.775 77.837 166.937 77.129C169.503 75.681 182.2 81.492 185.012 71.835C185.574 69.905 185.606 68.347 187.54 67.263C188.122 66.937 188.718 66.644 189.319 66.354C183.433 51.839 177.162 38.932 162.034 32.492C158.573 31.018 154.99 30.107 151.334 29.265C152.095 32.07 152.467 34.792 152.799 37.67C148.363 29.312 144.912 18.422 136.059 13.627C133.476 22.725 131.938 31.543 136.886 40.287C137.735 41.786 138.697 43.229 139.643 44.667ZM147.123 8.83701C145.947 15.075 147.914 18.989 151.166 24.128C153.037 24.413 154.94 24.638 156.797 24.998C155.083 19.266 151.125 13.253 147.123 8.83701ZM172.512 122.591C167.173 124.389 162.093 124.188 156.583 123.652C158.578 138.542 153.189 156.041 146.012 168.96C143.383 173.693 140.171 177.97 137.241 182.504C153.583 173.029 165.82 159.757 170.85 141.192C172.435 135.342 173.596 129.148 173.058 123.07L172.512 122.591ZM101.029 104.059C92.859 118.864 87.5121 137.417 90.5961 154.434C90.8431 155.801 93.088 164.906 92.585 165.333C91.685 163.751 91.4071 162.139 90.8251 160.437C86.2641 147.097 85.0711 132.777 88.8681 119.02C90.1901 114.178 91.776 109.413 93.62 104.744C93.914 104.007 93.839 104.314 93.814 103.496C85.335 110.818 81.2381 118.493 80.3811 129.77C79.2431 144.731 83.9521 162.017 93.8811 173.459C100.483 181.066 109.349 185.591 119.174 187.422C130.868 183.228 138.393 173.42 143.519 162.448C148.532 151.716 150.816 140.695 150.441 128.881C149.689 124.292 148.529 121.718 144.663 118.876C131.958 109.536 113.774 112.13 101.029 104.059ZM165.14 109.479C160.161 111.886 155.957 113.307 150.494 114.101C153.129 115.15 155.607 116.022 158.388 116.628C161.176 117.14 165.678 118.459 168.264 116.842C169.411 116.124 169.518 115.617 169.724 114.409C169.073 112.531 168.133 112.003 166.801 110.641C166.31 110.139 165.872 109.591 165.14 109.479Z" />
<path d="M159.342 45.549C160.486 45.482 161.637 45.41 162.785 45.425C165.081 45.456 167.639 46.904 169.137 48.619C169.936 49.532 170.67 50.949 170.514 52.182C170.318 53.727 169.704 54.447 168.592 55.425C165.793 55.579 163.312 55.705 160.768 54.341C159.264 53.535 157.98 52.531 157.637 50.748C157.234 48.651 158.093 47.13 159.342 45.549Z" />
<path d="M137.164 19.64C138.004 20.007 138.332 20.202 138.873 20.938C143.12 26.711 144.226 33.395 142.979 40.271L142.3 40.286C141.717 39.476 141.146 38.653 140.651 37.785C137.712 32.635 135.678 25.44 137.164 19.64Z" />
<path d="M400.934 55.873C409.268 56.056 417.62 56.008 425.957 56.071C425.738 68.726 425.93 81.417 425.932 94.075C425.956 113.137 426.607 132.507 425.716 151.537C418.189 151.532 410.547 151.265 403.042 151.825C403.004 146.747 403.02 141.698 402.434 136.646C400.942 139.094 399.065 141.451 397.059 143.5C389.167 151.564 378.814 153.947 367.838 153.949C359.048 153.95 348.874 149.772 342.696 143.51C338.273 139.028 335.468 133.383 333.942 127.312C331.332 116.935 332.186 105.732 332.152 95.11V56.007C340.428 55.941 348.704 55.977 356.979 56.118L356.908 92.617C356.885 99.885 356.094 107.967 357.558 115.087C358.435 119.348 360.228 123.461 363.224 126.666C366.947 130.649 372.109 132.474 377.492 132.53C383.428 132.591 389.473 130.747 393.737 126.485C396.964 123.26 398.96 118.923 399.968 114.513C401.815 106.43 401.067 97.364 401.046 89.103L400.934 55.873Z" />
<path d="M271.267 53.696C272.123 53.589 271.754 53.617 272.74 53.584C282.371 53.268 292.941 56.514 300.003 63.25C305.131 68.141 308.284 74.61 309.856 81.46C312.317 92.183 311.088 104.553 311.074 115.563C311.102 127.561 311.235 139.56 311.473 151.556L287.09 151.576L287.109 109.926C287.154 100.32 288.128 88.722 280.542 81.428C276.38 77.425 270.207 75.687 264.526 75.89C259.091 76.084 253.411 77.723 249.617 81.779C246.675 85.082 244.841 88.359 243.777 92.659C241.801 100.652 242.609 109.745 242.59 117.943L242.53 151.437C234.571 151.146 226.491 151.472 218.52 151.509C218.445 119.673 218.907 87.762 218.287 55.935L240.252 55.999L241.203 72.131C242.578 69.834 243.968 67.567 245.662 65.487C252.236 57.415 261.293 54.798 271.267 53.696Z" />
<path d="M549.295 54.309C565.783 53.228 579.95 56.605 593.8 65.707C590.143 71.264 586.522 76.845 582.936 82.448C576.003 78.013 567.844 74.534 559.646 73.441C554.459 72.75 546.94 72.709 542.762 76.281C541.106 77.696 539.957 79.981 539.971 82.169C540.032 92.119 565.276 94.155 572.466 96.303C578.306 98.048 584.068 100.614 588.475 104.936C593.508 109.871 595.842 116.291 595.849 123.276C595.857 130.998 593.09 138.02 587.506 143.392C578.364 152.187 566.313 153.896 554.125 153.668C538.229 153.103 524.228 148.531 511.843 138.355C515.633 132.887 519.444 127.361 523.519 122.103C533.25 130.375 546.388 135.523 559.285 134.913C562.628 134.755 568.304 133.675 570.574 131.009C572.115 129.2 572.905 127.098 572.67 124.71C571.673 114.558 547.97 112.954 540.031 110.693C534.593 109.144 529.081 106.812 524.769 103.071C519.586 98.574 516.957 92.986 516.437 86.207C515.866 78.739 518.029 71.344 523.019 65.686C529.651 58.167 539.592 55.084 549.295 54.309Z" />
<path d="M454.31 31.962C462.379 31.676 470.434 32.115 478.505 31.992C478.368 40.106 478.449 48.237 478.424 56.354C486.049 56.174 493.679 56.574 501.299 56.292C501.114 62.74 500.75 69.694 501.461 76.091C493.795 76 486.127 76.004 478.461 76.105C478.552 86.377 476.328 120.187 480.896 127.557C482.325 129.861 484.407 131.564 487.092 132.134C491.551 133.079 495.639 130.791 499.29 128.549C501.136 132.724 502.94 136.917 504.7 141.128L506.867 146.235C499.879 150.995 492.813 153.826 484.27 153.816C475.918 153.806 467.712 151.513 461.795 145.295C458.533 141.869 456.33 137.626 455.18 133.052C453.262 125.42 453.922 116.992 453.953 109.191C453.955 98.179 454.111 87.168 454.422 76.161C449.667 76.015 444.856 76.323 440.1 76.469C440.338 69.748 440.013 63.007 440.26 56.272C444.852 56.457 449.432 56.427 454.025 56.393C453.998 48.249 454.093 40.104 454.31 31.962Z" />
</svg>
