<?xml version="1.0" encoding="utf-8" ?>
<svg xmlns="http://www.w3.org/2000/svg" xmlns:xlink="http://www.w3.org/1999/xlink" width="1024" height="1024">
	<path fill="#3C3B3C" d="M495.124 389.226C486.511 385.769 477.596 382.969 468.319 382.109C444.181 379.872 422.376 386.783 401.442 369.991C391.824 362.277 383.895 350.396 382.576 337.924C381.276 325.619 385.512 314.176 393.281 304.733C407.079 287.961 429.448 283.177 449.994 281.209Q452.651 281.075 455.311 281.075Q457.972 281.076 460.629 281.212Q463.285 281.347 465.932 281.617Q468.579 281.888 471.208 282.292Q473.838 282.696 476.443 283.233Q479.049 283.769 481.624 284.438Q484.199 285.106 486.737 285.904Q489.275 286.702 491.769 287.628C515.77 296.434 541.373 316.608 552.122 340.258C556.914 350.803 558.223 362.105 553.982 373.077C550.582 381.873 544.008 389.573 535.3 393.415C521.748 399.395 508.025 394.193 495.124 389.226ZM448.397 291.205C441.21 291.728 434.153 292.981 427.117 294.506Q441.951 297.563 456.38 302.169L463.069 304.507C465.908 299.957 468.922 296.266 473.036 292.807C464.962 291.728 456.553 290.269 448.397 291.205ZM477.01 293.972C472.879 297.541 469.835 301.313 466.992 305.975C484.085 314.133 499.773 322.926 514.425 335.028L515.046 335.145C519.227 330.91 521.348 324.401 523.027 318.821C509.83 306.567 494.576 298.028 477.01 293.972ZM417.915 299.185C412.933 301.076 408.893 303.426 405.065 307.191C410.525 321.027 420.228 329.164 433.753 335.012C438.975 337.27 444.366 339.022 449.78 340.75L454.651 342.321C455.486 330.103 457.046 320.026 461.745 308.61C447.976 303.586 432.724 298.38 417.915 299.185ZM465.586 309.716C461.729 321.356 459.37 331.31 459.341 343.659C471.631 347.143 483.032 352.024 494.178 358.24C495.545 356.179 496.862 353.899 498.387 351.962C502.311 346.93 506.581 342.479 511.268 338.156C501.892 330.68 492.196 323.747 481.663 317.972C476.451 315.114 470.601 312.833 465.586 309.716ZM401.22 310.899C397.6 315.928 394.98 320.86 396.02 327.289C397.532 336.624 405.667 344.268 413.099 349.378C425.68 358.028 439.966 361.937 454.881 364.291L458.7 364.958C457.487 359.063 456.377 353.212 455.573 347.245C436.245 341.297 413.856 335.201 403.698 315.905C402.833 314.261 401.978 312.596 401.22 310.899ZM526.388 322.187C524.393 328.424 521.844 333.332 517.618 338.347C525.053 344.799 533.657 352.541 538.89 360.915C540.083 362.351 540.372 363.122 542.216 363.59C543.487 362.973 543.929 362.597 544.439 361.241C546.796 354.968 543.592 345.752 540.639 340.088C537.031 333.168 532.056 327.485 526.388 322.187ZM393.264 336.284C393.988 344.941 400.544 353.338 406.976 358.763C420.629 370.277 436.372 371.945 453.458 370.375L455.571 370.177C453.092 367.154 436.405 365.521 431.812 364.319C428.205 363.375 424.908 362.001 421.542 360.394C413.826 356.71 405.738 351.476 400.279 344.795C397.968 341.966 396.09 338.621 393.264 336.284ZM514.552 340.943C508.691 347.037 503.084 353.05 498.059 359.876C507.627 366.098 516.285 373.519 525.754 379.759C527.88 380.385 529.048 380.2 530.991 379.135C534.738 377.081 538.162 373.355 540.608 369.89C532.779 359.536 524.76 349.101 514.552 340.943ZM459.544 348.183C460.718 354.707 462.599 360.873 464.829 367.107C472.512 369.074 479.927 372.157 487.687 373.741C488.762 373.057 489.055 372.128 489.541 371.011L492.53 362.593C481.734 356.884 471.114 352.107 459.544 348.183ZM496.194 364.132L492.065 375.537C500.429 379.049 508.736 382.276 517.881 382.904L519.949 382.818L520.379 382.201C518.113 377.168 501.429 367.339 496.194 364.132Z"/>
	<path fill="#3C3B3C" d="M538.062 481.254C532.51 475.994 530.17 469.343 529.053 461.943C525.906 441.087 532.475 419.673 545.042 402.995C573.921 364.668 621.786 350.085 667.337 343.702C668.394 343.633 668.347 343.552 669.394 344.051C669.465 344.304 669.544 344.554 669.607 344.809C670.585 348.818 669.25 354.755 668.736 358.915C665.545 384.722 658.527 409.797 644.954 432.152C630.198 456.456 605.936 478.52 577.722 485.266C564.337 488.467 550.122 488.589 538.062 481.254ZM651.404 356.634C642.918 358.296 634.421 359.901 626.166 362.524C625.304 368.197 620.743 386.627 621.74 390.98L622.434 391.064L623.409 390.169C627.968 385.271 653.004 360.217 654.22 356.774C653.14 356.389 652.527 356.452 651.404 356.634ZM657.81 359.91C651.391 366.867 645.133 373.975 638.522 380.753C635.975 383.365 624.777 393.487 623.446 395.738C623.423 395.777 623.174 396.739 623.171 396.764C623.159 396.853 623.188 396.942 623.197 397.03C632.359 396.827 641.258 396.286 650.148 393.912C652.783 386.309 659.286 367.221 657.81 359.91ZM620.865 364.017Q607.523 369.115 594.593 375.183C594.254 386.657 592.179 398.206 591.222 409.665C590.87 413.878 590.203 418.461 590.771 422.659L591.024 422.755Q603.533 409.586 616.743 397.12C617.915 386.196 620.265 375.406 621.314 364.481L620.865 364.017ZM590.263 377.502C579.127 384.226 568.595 392.095 560.285 402.208C559.44 418.294 557.767 434.776 559.731 450.83C569.175 443.594 577.748 435.317 586.41 427.183C586.225 418.326 586.942 409.444 587.915 400.644C588.499 395.359 591.073 382.145 590.263 377.502ZM647.406 399.735C637.816 400.587 628.343 400.943 618.716 400.872C615.244 404.42 594.686 424.404 593.597 427.522C594.543 428.031 595.225 428.158 596.29 428.265C609.892 429.082 623.478 429.282 636.722 425.557C640.123 420.053 649.015 405.706 648.637 399.825C647.616 399.672 648.026 399.642 647.406 399.735ZM556.312 405.35C544.694 422.403 536.155 439.003 540.104 460.233Q540.658 463.288 541.556 466.261C544.817 465.803 552.612 457.378 555.871 455.011C554.778 446.278 554.894 437.181 555.117 428.391C555.246 423.314 557.405 409.018 556.312 405.35ZM632.524 431.212C618.12 432.856 602.392 434.127 587.97 431.866C579.36 439.614 570.811 447.568 561.934 455.003C562.712 455.811 564.027 455.855 565.114 456.108C576.758 457.897 601.598 462.848 611.361 455.827C617.972 451.073 629.815 439.19 632.876 431.695L632.524 431.212ZM558.186 458.824C553.531 462.821 548.877 466.775 544.027 470.535C550.59 476.014 557.678 477.207 565.976 476.475C572.318 475.916 578.407 474.302 584.364 472.103C590.267 469.553 595.762 466.645 601.03 462.946C591.201 464.435 578.683 462.709 568.98 460.98C565.503 460.36 561.641 459.111 558.186 458.824Z"/>
	<path fill="#3C3B3C" d="M364.751 589.467C356.638 587.383 349.117 584.173 342.179 579.44Q340.822 578.526 339.513 577.546Q338.204 576.566 336.945 575.521Q335.686 574.477 334.481 573.371Q333.276 572.265 332.128 571.101Q330.979 569.936 329.89 568.715Q328.802 567.495 327.775 566.222Q326.748 564.948 325.787 563.625Q324.825 562.302 323.93 560.933Q323.036 559.564 322.211 558.152Q321.386 556.739 320.632 555.288Q319.878 553.836 319.198 552.349Q318.518 550.861 317.913 549.342Q317.308 547.822 316.779 546.274Q316.25 544.727 315.8 543.154Q315.349 541.582 314.977 539.989Q314.606 538.396 314.314 536.787C310.684 517.344 315.847 497.128 326.963 480.967C345.757 453.644 370.3 453.067 395.082 435.957C414.351 422.653 426.525 399.242 451.107 394.647C455.874 394.28 460.751 394.326 465.457 395.234Q466.5 395.446 467.531 395.709Q468.562 395.973 469.578 396.287Q470.595 396.601 471.595 396.965Q472.595 397.329 473.575 397.742Q474.556 398.155 475.515 398.616Q476.474 399.077 477.409 399.585Q478.344 400.093 479.253 400.646Q480.162 401.2 481.042 401.798Q481.922 402.396 482.772 403.036Q483.621 403.677 484.438 404.359Q485.255 405.04 486.037 405.762Q486.82 406.483 487.565 407.243Q488.311 408.002 489.018 408.797Q489.725 409.592 490.392 410.421Q491.058 411.251 491.683 412.112Q492.308 412.973 492.89 413.864C500.204 424.883 501.958 438.322 499.293 451.14C494.901 472.264 479.727 480.329 469.865 497.39C464.852 506.062 462.046 515.887 459.045 525.385C451.956 547.823 440.981 566.633 420.902 579.774C403.882 590.912 384.439 593.544 364.751 589.467ZM452.338 406.098C429.131 410.554 418.659 432.471 400.492 445.048C378.778 460.08 351.7 463.548 335.845 486.795C326.288 500.807 321.694 518.345 325.027 535.14Q325.314 536.523 325.667 537.89Q326.021 539.257 326.44 540.605Q326.859 541.953 327.342 543.28Q327.826 544.606 328.373 545.908Q328.921 547.21 329.53 548.483Q330.14 549.757 330.81 551Q331.481 552.242 332.21 553.451Q332.94 554.66 333.727 555.832Q334.514 557.004 335.357 558.137Q336.2 559.27 337.097 560.361Q337.994 561.451 338.942 562.497Q339.89 563.543 340.888 564.542Q341.886 565.542 342.931 566.491Q343.976 567.441 345.066 568.339Q346.155 569.237 347.287 570.081Q348.419 570.925 349.59 571.714C354.199 574.791 359.404 577.329 364.755 578.809C382.663 582.941 399.091 581.002 414.825 571.229C433.494 559.635 444.237 541.058 450.246 520.395C452.885 511.316 455.089 501.885 459.886 493.638C468.918 478.112 484.963 467.961 489.05 449.516C491.165 439.972 489.714 429.379 484.387 421.099C479.41 413.361 471.195 408.43 462.276 406.575C458.946 405.882 455.728 405.709 452.338 406.098Z"/>
	<path fill="#3C3B3C" d="M363.585 573.136C359.824 571.79 356.232 570.182 352.84 568.056Q351.772 567.384 350.739 566.66Q349.706 565.936 348.71 565.162Q347.714 564.387 346.758 563.564Q345.802 562.742 344.887 561.872Q343.973 561.003 343.103 560.09Q342.233 559.176 341.409 558.22Q340.586 557.265 339.81 556.27Q339.035 555.274 338.31 554.242Q337.585 553.209 336.913 552.142Q336.24 551.075 335.621 549.976Q335.002 548.876 334.438 547.748Q333.874 546.619 333.367 545.464Q332.86 544.309 332.411 543.13Q331.962 541.951 331.572 540.751Q331.182 539.552 330.851 538.334Q330.521 537.116 330.252 535.884C326.708 520.119 330.266 505.03 338.945 491.567C354.394 467.602 380.233 464.752 402.045 449.724C420.224 437.199 431.035 416.532 454.161 411.628C456.87 411.52 459.957 411.645 462.501 412.62C466.687 414.224 468.46 417.546 470.204 421.375C471.676 421.451 473.122 421.559 474.56 421.909Q475.177 422.054 475.775 422.263Q476.373 422.472 476.946 422.741Q477.519 423.011 478.06 423.339Q478.602 423.667 479.107 424.05Q479.612 424.433 480.074 424.866Q480.536 425.299 480.95 425.778Q481.365 426.257 481.727 426.776Q482.09 427.296 482.396 427.85C486.15 434.505 486.218 443.019 484.116 450.214C479.247 466.886 464.452 477.732 456.021 492.332C451.512 500.139 449.169 508.841 446.675 517.43C440.251 539.564 431.641 557.138 410.573 568.678C396.062 576.627 379.327 577.657 363.585 573.136ZM453.523 416.109C440.834 419.489 429.968 430.241 421.439 439.763L430.821 443.523C432.073 443.748 432.087 443.661 433.159 442.881C439.879 437.996 457.092 424.268 461.388 418.102L461.306 417.35C459.226 415.795 456 415.998 453.523 416.109ZM464.184 422.435C454.686 430.01 445.623 438.002 436.665 446.202C438.197 447.447 439.796 448.653 441.274 449.959L445.275 453.263C451.868 445.713 463.055 433.232 464.719 423.463C464.408 422.503 464.694 422.762 464.184 422.435ZM469.948 425.26C463.804 436.046 457.294 445.724 449.496 455.402C451.891 456.353 454.226 457.285 456.483 458.544L460.98 460.985C465.747 453.215 475.559 438.751 472.907 429.244C472.437 427.56 471.463 426.139 469.948 425.26ZM477.669 431.714C477.11 437.619 475.927 443.036 473.496 448.476C468.905 458.75 461.218 466.954 456.28 476.856C455.74 477.938 455.42 479.008 455.642 480.22C456.56 480.38 456.557 480.589 457.363 480.023C467.474 469.477 480.624 456.736 480.574 440.973C480.566 438.396 480.224 434.052 478.236 432.126C478.068 431.964 477.858 431.852 477.669 431.714ZM418.485 443.944C415.631 446.231 412.791 448.52 409.812 450.643C412.11 452.679 414.309 454.858 417.044 456.293C417.822 456.236 418.088 456.207 418.802 455.833L428.552 447.057C425.211 445.812 421.965 444.73 418.485 443.944ZM433.3 448.912C429.22 452.547 425.196 456.291 420.95 459.732L431.355 470.13L432.081 470.118C435.743 466.132 439.145 461.462 442.149 456.958C439.78 454.332 436.7 450.204 433.3 448.912ZM405.89 453.414C392.722 461.905 378.443 467.542 364.611 474.745C368.496 475.205 372.234 475.885 375.992 476.992L383.827 479.789C393.857 473.425 403.774 466.795 413.068 459.381C411.209 457.462 408.554 453.993 405.89 453.414ZM447.19 458.334Q440.906 466.149 434.911 474.187C436.749 476.235 441.715 482.845 444.119 483.101L444.37 482.957C449.349 477.249 454.197 471.746 457.734 464.983C454.539 461.949 451.138 460.199 447.19 458.334ZM416.893 462.367C408.358 469.016 399.682 475.212 390.687 481.222C396.337 484.551 401.825 488.335 406.612 492.843L410.207 496.24C416.858 489.103 422.812 481.365 429.442 474.237C425.932 470.496 421.483 464.606 416.893 462.367ZM432.257 477.785Q422.718 489.218 412.876 500.39C416.657 505.126 420.571 509.809 424.149 514.699L425.615 516.418L426.26 516.424C430.972 506.34 434.774 496.282 440.683 486.757C438.293 483.849 435.494 479.665 432.257 477.785ZM358.643 479.654C348.488 485.06 340.476 496.882 337.124 507.716Q336.507 509.774 335.967 511.854C342.368 510.455 348.583 509.747 355.124 509.462C358.235 509.201 359.576 507.856 361.531 505.529C367.776 498.099 372.276 490.215 379.386 483.375C372.587 481.012 365.808 480.093 358.643 479.654ZM451.791 481.781C439.953 493.847 436.007 506.28 429.065 521.09C431.063 523.946 433.127 526.766 434.829 529.812L435.97 531.489C437.059 531.214 437.063 531.113 437.591 530.158C440.262 525.322 443.223 510.133 445.248 503.856C447.54 496.749 451.887 490.665 453.888 484.028C453.295 482.999 452.735 482.494 451.791 481.781ZM385.565 484.327C376.498 492.131 369.907 500.706 363.228 510.521C371.545 514.018 379.555 517.846 386.345 523.923C394.085 516.274 401.03 508.281 408.066 499.999C401.483 493.958 394.371 486.795 385.565 484.327ZM410.289 503.885Q400.305 515.383 389.934 526.532C395.142 532.827 399.858 539.088 404.198 546.024C412.503 539.519 418.272 530.093 423.78 521.224C418.936 515.711 415.189 509.362 410.289 503.885ZM349.852 514.205C344.422 514.564 340.357 515.428 335.373 517.579C335.084 533.019 337.322 540.539 345.994 553.216L349.507 556.667C348.507 541.267 349.513 528.22 355.975 513.991C353.969 514.036 351.832 513.928 349.852 514.205ZM360.937 514.836C354.935 526.252 350.26 541.822 354.057 554.673C354.69 556.816 355.753 558.784 356.926 560.673Q360.213 554.666 363.706 548.776C369.442 540.63 375.801 533.521 383.029 526.676C375.796 521.216 369.65 517.584 360.937 514.836ZM426.352 526.296C419.89 535.175 413.088 543.264 405.392 551.103C406.249 554.044 407.157 560.821 409.663 562.478L411.513 561.485C419.956 555.207 429.51 546.876 433.01 536.57C431.435 532.61 429.959 528.893 426.352 526.296ZM385.618 529.87C379.451 536.25 361.928 554.315 361.498 562.745C361.459 563.513 361.804 563.775 362.2 564.386C365.896 566.146 371.735 564.94 375.677 564.374C385.404 560.983 392.828 555.419 400.622 548.792C397.769 544.09 390.696 531.369 385.618 529.87ZM401.46 553.951C393.301 560.67 385.479 566.52 375.175 569.608L375.067 569.949L377.88 570.52C387.059 570.342 395.446 568.631 404.014 565.337C403.738 562.409 403.773 556.118 401.46 553.951Z"/>
	<path fill="#3C3B3C" d="M649.189 596.164C633.306 595.317 618.822 589.704 606.827 579.182C593.731 567.695 584.454 550.336 583.367 532.841C582.502 518.904 587.262 506.152 596.509 495.761C608.4 482.4 625.746 475.788 643.303 474.726C661.253 475.006 678.397 480.261 691.171 493.398C702.211 504.752 708.506 521.187 708.222 536.993C707.924 553.566 700.162 570.609 688.246 582.061C677.409 592.475 664.01 596.531 649.189 596.164ZM652.374 484.922C669.817 499.475 683.612 510.802 685.784 535.048C686.274 540.514 685.966 546.036 685.747 551.51L693.006 557.081C693.775 555.441 694.6 553.808 695.291 552.134C699.903 538.455 700.042 526.294 693.503 513.157C687.151 500.395 675.795 491.575 662.381 487.128C659.102 486.041 655.812 485.27 652.374 484.922ZM629.867 489.64C617.139 492.154 607.012 498.499 599.773 509.417C597.612 512.676 596.012 516.096 594.651 519.75C610.627 539.442 629.762 561.08 656.66 563.965C659.054 564.222 662.426 564.757 664.464 563.242C665.02 562.828 665.327 562.206 665.399 561.511C665.502 560.53 665.022 559.529 664.596 558.684C662.019 555.156 653.958 547.557 654.278 543.263C656.012 543.072 657.72 543.959 659.079 545.052C663.073 548.263 666.324 553.315 669.381 557.436C673.08 554.815 676.666 552.936 680.953 551.453C681.413 533.901 678.605 518.66 666.152 505.397C657.637 496.328 645.548 489.853 632.94 489.601Q631.403 489.577 629.867 489.64ZM593.582 525.758C593.94 543.246 600.732 558.051 613.413 570.093C624.452 580.575 638.634 585.921 653.868 585.46C656.745 585.373 659.523 585.028 662.309 584.287C661.116 578.929 661.207 574.875 662.552 569.506C657.656 568.871 652.662 568.354 647.884 567.081C631.032 562.589 616.315 550.83 604.483 538.31C600.779 534.39 597.639 529.194 593.582 525.758ZM680.508 564.43C678.735 565.518 676.675 566.455 675.606 568.297C675.701 569.728 675.804 569.88 676.872 570.923C677.031 571.079 677.212 571.213 677.382 571.358C679.336 570.197 681.36 568.807 681.956 566.467C682.174 565.611 681.757 565.364 681.329 564.674L680.508 564.43Z"/>
	<path fill="#3C3B3C" d="M506.11 595.652C495.851 595.568 485.476 594.561 477.122 587.947C471.651 583.616 468.5 577.874 467.683 570.95C466.457 560.551 470.829 551.209 477.144 543.211Q477.773 542.413 478.422 541.631Q479.071 540.848 479.738 540.082Q480.406 539.316 481.092 538.566Q481.778 537.817 482.483 537.084Q483.187 536.352 483.909 535.637Q484.632 534.922 485.371 534.224Q486.111 533.527 486.867 532.849Q487.623 532.17 488.396 531.51Q489.169 530.85 489.958 530.209Q490.747 529.568 491.551 528.947Q492.355 528.326 493.174 527.725Q493.994 527.123 494.828 526.542Q495.661 525.961 496.509 525.401Q497.357 524.841 498.218 524.301Q499.08 523.762 499.954 523.244Q500.828 522.725 501.715 522.229Q502.602 521.733 503.5 521.258Q504.399 520.783 505.309 520.331Q506.219 519.879 507.14 519.449Q508.061 519.019 508.992 518.612Q509.923 518.204 510.864 517.82Q511.805 517.436 512.755 517.075Q513.705 516.714 514.663 516.376Q515.622 516.039 516.588 515.725Q517.555 515.411 518.529 515.121Q519.503 514.83 520.484 514.564Q521.464 514.298 522.451 514.056Q523.439 513.814 524.431 513.596Q525.424 513.379 526.422 513.185Q527.419 512.992 528.422 512.823Q529.424 512.655 530.43 512.51Q531.436 512.366 532.445 512.247C532.734 512.22 533.022 512.19 533.311 512.167C543.703 511.353 555.023 514.817 562.855 521.755C567.603 525.962 570.609 531.534 570.924 537.92C571.503 549.656 563.646 561.624 556.156 569.995C543.577 584.053 525.214 594.654 506.11 595.652ZM532.359 523.194C514.454 524.997 496.807 535.735 485.582 549.602C481.043 555.208 477.081 562.096 478.059 569.583C478.349 571.808 479.133 574.829 480.994 576.296C484.944 579.41 497.354 577.312 502.107 576.467C522.183 572.337 540.865 562.098 552.253 544.632C554.533 541.135 557.451 536.371 556.619 532.039C556.175 529.729 554.611 528.001 552.63 526.835C547.609 523.879 538.156 522.453 532.359 523.194ZM558.856 539.831Q558.063 541.478 557.189 543.083Q556.315 544.688 555.363 546.248Q554.41 547.807 553.381 549.318Q552.353 550.829 551.25 552.286Q550.148 553.744 548.974 555.145Q547.801 556.547 546.56 557.888Q545.318 559.229 544.012 560.507Q542.705 561.785 541.337 562.997Q539.968 564.208 538.542 565.35Q537.115 566.493 535.633 567.563Q534.152 568.633 532.619 569.628Q531.086 570.623 529.505 571.541Q527.925 572.459 526.301 573.297Q524.677 574.135 523.013 574.892Q521.35 575.649 519.651 576.322Q517.951 576.995 516.221 577.583Q509.146 580.057 501.754 581.294C498.733 581.784 495.404 581.895 492.468 582.681C491.519 582.935 491.336 582.889 490.84 583.773L491.727 584.267C508.783 586.818 523.809 582.96 537.734 572.619C545.99 566.489 557.615 554.003 559.04 543.455C559.199 542.279 559.185 540.976 558.856 539.831Z"/>
	<path fill="#3C3B3C" d="M548.974 644.557C548.973 639.654 547.797 629.256 549.475 625.049L550.953 624.739C560.091 624.743 569.378 624.403 578.491 625.076L578.629 644.614Q590.575 644.748 602.515 644.362L602.467 664.832Q590.536 664.751 578.606 664.838C578.425 673.996 576.558 693.406 579.418 701.349C580.412 704.11 582.262 706.496 585.01 707.666C589.768 709.693 594.871 707.669 599.397 706.013Q601.545 712.898 604.031 719.668L606.498 725.826C599.142 729.466 591.43 732.095 583.157 732.208C574.226 732.33 564.371 730.103 557.897 723.557C547.92 713.47 549.082 696.521 549.168 683.449L549.178 664.497L537.808 664.536Q537.785 654.655 537.952 644.776C541.622 644.649 545.302 644.629 548.974 644.557Z"/>
	<path fill="#3C3B3C" d="M622.453 702.693C629.349 706.857 636.144 709.825 644.171 710.976C649.506 711.741 660.209 712.489 664.665 708.854C666.188 707.612 666.782 706.23 666.937 704.318C664.973 697.175 642.686 694.444 636.452 692.56C632.678 691.42 628.977 689.791 625.743 687.52C620.396 683.765 616.738 678.55 615.742 672.032C614.637 664.808 616.323 657.378 620.868 651.599C627.326 643.389 637.637 640.492 647.539 639.195C662.505 637.857 677.18 640.192 690.476 647.291Q686.696 657.725 681.828 667.698C675.739 664.907 669.685 662.335 663.044 661.206C657.83 660.319 648.661 659.879 644.316 663.251C643.254 664.076 642.868 664.912 642.687 666.232C644.845 675.859 674.695 675.717 685.063 684.382C689.878 688.406 692.161 694.146 692.618 700.304C693.152 707.506 691.368 714.613 686.498 720.115C678.371 729.296 665.113 731.534 653.526 732.328C638.569 732.718 625.166 729.142 611.646 723.034Q617.145 712.914 622.453 702.693Z"/>
	<path fill="#3C3B3C" d="M342.035 650.592C350.561 643.828 358.068 640.844 368.908 639.737Q369.491 639.71 370.075 639.703C381.049 639.603 391.749 642.043 399.781 649.983C413.218 663.267 411.599 684.131 411.57 701.479L411.609 730.623Q397.648 730.547 383.688 730.737C383.62 717.738 385.986 683.474 380.127 672.784C378.051 668.997 374.661 665.933 370.444 664.788C364.773 663.249 357.268 665.161 352.228 668.046C351.107 668.897 349.988 669.76 349.017 670.783C346.592 673.336 344.967 676.559 344.163 679.978C341.789 690.072 343.2 718.753 343.255 730.713L315.818 730.687L316.043 641.237C324.71 640.84 333.411 640.981 342.085 640.991L342.035 650.592Z"/>
	<path fill="#3C3B3C" d="M458.524 641.017C458.62 653.451 456.558 686.794 460.857 696.734Q461.174 697.487 461.565 698.205Q461.956 698.923 462.416 699.598Q462.877 700.273 463.402 700.899Q463.927 701.525 464.512 702.096Q465.097 702.667 465.736 703.176Q466.375 703.686 467.062 704.129Q467.749 704.572 468.476 704.945Q469.203 705.318 469.964 705.616C474.725 707.479 480.86 707.27 485.52 705.192C488.98 703.65 491.619 701.102 493.19 697.658C497.45 688.317 495.606 663.361 495.444 652.363C495.394 648.965 494.839 644.265 496.033 641.104L497.75 640.718L523.457 640.718L523.477 730.616C514.377 730.61 505.28 730.539 496.189 731.015C495.875 727.991 495.701 724.968 495.533 721.933C491.141 726.067 486.535 729.103 480.648 730.64C470.325 733.335 458.163 731.956 448.966 726.455C439.101 720.554 434.544 711.736 431.897 700.888C429.508 683.259 430.796 659.557 430.813 641.245Q444.667 640.894 458.524 641.017Z"/>
</svg>
