<svg width="53" height="96" viewBox="0 0 53 96" fill="none" xmlns="http://www.w3.org/2000/svg">
<path d="M24.3317 0.721848C30.5716 0.296215 36.2877 2.46171 41.109 6.39558C49.758 13.4523 52.5743 24.6005 49.3556 35.1434C48.1904 38.9603 45.9723 42.6076 46.226 46.7216C46.4435 50.2522 48.4115 53.4077 49.7545 56.5956C50.8921 59.296 51.6684 62.1 51.9444 65.0203C52.6369 72.3463 50.7695 79.5565 45.9964 85.2552C41.3444 90.8096 35.2254 94.3231 27.9964 94.9728C21.2671 95.3725 15.5698 93.1788 10.3494 89.0107C1.2782 81.7382 -2.21798 69.5339 1.62624 58.5612C3.14241 54.2537 5.91578 50.6643 6.11831 45.9283C6.25823 42.6511 4.57686 39.5667 3.48661 36.562C2.76527 34.5741 2.18297 32.5256 1.95017 30.4191C1.12624 22.9568 2.66327 16.2098 7.41196 10.2924C11.476 5.22833 17.8491 1.4376 24.3317 0.721848ZM23.2927 76.976L23.7562 76.9122C24.1374 75.6635 23.775 66.645 23.7962 64.6132C20.7024 64.7032 16.4364 64.8698 13.4414 64.5921C12.6239 68.6073 12.0184 72.8804 12.8226 76.9477C16.3126 76.8963 19.8032 76.9057 23.2927 76.976ZM23.7921 25.2331C20.7374 25.5273 15.6327 25.3651 12.4622 25.2642C12.7923 30.0015 15.7735 35.154 16.7826 39.9835C19.128 39.9054 21.5169 39.8898 23.8632 39.9688C23.7685 35.0567 23.862 30.1446 23.7921 25.2331ZM39.5555 76.9075C39.9235 72.712 39.5578 68.7384 38.9288 64.595C35.8473 64.5921 31.6031 64.8763 28.7292 64.5985L28.6948 76.9592C31.2556 76.8525 33.8297 76.9278 36.3923 76.9469C37.3753 76.9542 38.6098 77.1026 39.5555 76.9075ZM28.6968 40.0553C30.8 39.7449 33.1189 39.935 35.2451 39.9756C35.6119 38.8172 35.9364 37.6214 36.3676 36.4865C37.768 32.7933 39.1437 29.1511 40.1051 25.3116C36.315 25.3145 32.4864 25.428 28.7012 25.2836L28.6968 40.0553ZM40.3494 20.2627C39.8247 15.7669 38.3779 11.9376 34.7165 9.07313C32.8838 7.63927 30.9632 6.92968 28.701 6.49611C28.703 11.0867 28.7633 15.6854 28.6915 20.2751C32.5463 20.1416 36.4923 20.1716 40.3494 20.2627ZM13.0595 20.2263C16.6445 20.2539 20.2518 20.1878 23.8335 20.2992C23.8185 15.7948 23.7018 11.2654 23.7977 6.7639C23.4911 6.63956 23.646 6.65514 23.3344 6.70511C19.7189 7.42998 16.7741 9.44909 14.7435 12.5273C13.785 13.9808 11.7894 18.3104 12.2894 19.9344C12.3402 20.1005 12.3544 20.104 12.4405 20.2257C12.6483 20.2307 12.852 20.2375 13.0595 20.2263ZM15.1727 59.4495H21.2515L23.8317 59.4707C23.8265 54.6885 23.7101 49.8792 23.8315 45.0999C21.9946 45.1902 19.467 45.4133 17.6848 45.0309C18.1889 50.152 16.7133 54.6508 15.1727 59.4495ZM28.7121 59.4536C29.7309 59.4501 36.6266 59.6776 37.1754 59.3107C37.1951 59.2975 37.2021 59.2722 37.2157 59.2528C35.4546 54.8145 34.101 49.888 34.4846 45.0779C32.6695 45.0808 30.4787 45.3389 28.7095 45.0641L28.7121 59.4536ZM44.6672 77.4892L45.4694 75.8096C46.8768 72.0083 47.0431 68.6018 46.7471 64.5906L43.855 64.6112C44.7113 68.9386 44.9538 73.0803 44.6672 77.4892ZM38.0167 82.0624C34.9338 82.0586 31.7791 82.1844 28.703 82.0386L28.698 89.3752C30.9514 88.7558 33.0593 88.1027 34.8106 86.4654C36.1592 85.1597 37.1722 83.7391 38.0167 82.0624ZM11.1986 45.0797C11.0622 50.8234 8.653 54.3266 6.79144 59.4465L9.18328 59.4342C9.45312 59.4157 9.58363 59.4824 9.76793 59.2649C10.6633 58.2084 12.4787 51.1153 12.7089 49.5177C12.9202 48.052 12.944 46.5703 12.9417 45.0923C12.3652 45.0894 11.7726 45.1164 11.1986 45.0797ZM7.50808 75.9081C7.14359 72.2088 7.40285 68.2658 8.3082 64.6491C7.38697 64.6488 6.46017 64.6702 5.53953 64.6444C5.23353 67.421 5.7062 74.461 7.26088 76.6256C7.37816 76.789 7.48633 76.9442 7.68768 76.9789C7.63859 76.6197 7.57422 76.2646 7.50808 75.9081ZM40.5569 40.0961C41.0484 40.0964 41.7518 40.1934 42.1754 39.9233C43.93 37.0414 45.9082 28.4541 45.2033 25.1957C45.1625 25.0076 45.144 24.9873 45.0714 24.8374C44.512 28.3868 43.5999 31.754 42.2945 35.1005C41.9767 35.9148 40.2903 39.4486 40.4799 40.0647L40.5569 40.0961ZM23.827 82.065C20.7941 82.0586 17.7215 82.1582 14.6942 82.0445C16.521 85.3031 18.5704 87.8372 22.2985 88.8952C22.8018 89.0354 23.3068 89.1679 23.8138 89.2934C23.8153 86.8849 23.7924 84.4733 23.827 82.065ZM12.0025 40.0467C10.6304 36.2393 8.97311 32.4221 8.03865 28.4785C7.87228 27.7757 7.73177 25.5085 7.24265 25.1123C6.62566 30.3383 8.48222 35.2002 10.2291 40.0312L12.0025 40.0467ZM39.3009 45.0485C39.2656 50.2046 40.9461 54.6352 42.5055 59.4739C43.5443 59.4683 44.586 59.4471 45.6243 59.4856C43.4667 55.0703 41.1022 50.0726 41.1819 45.0653L39.3009 45.0485Z" fill="#B76736"/>
</svg>
