<svg width="166" height="164" viewBox="0 0 166 164" fill="none" xmlns="http://www.w3.org/2000/svg">
<path d="M42.4166 0.757965C45.9819 0.64803 49.586 0.827046 53.1565 0.829397L76.4173 0.807644L76.4138 72.7078L34.5968 72.8466L0.34925 72.7887C0.540315 66.1537 0.513276 59.4427 0.419507 52.8057C0.367185 49.1079 0.18876 45.3927 0.390407 41.696C0.940673 31.6105 4.71463 22.5146 11.4304 14.9923C17.8387 7.73035 26.5521 2.89671 36.1053 1.30412C38.1953 0.960788 40.3052 0.874074 42.4166 0.757965ZM42.2791 69.1605L42.2147 31.1613L42.2282 14.2418C42.2318 11.0102 42.3343 7.74181 42.2006 4.51429C42.1912 4.2856 42.165 4.13158 42.0242 3.94492C42.0098 3.92582 41.9904 3.91141 41.9734 3.89465C31.5789 14.3456 21.8255 21.3724 21.8984 37.6804C21.9345 45.7122 24.6462 53.2031 30.4134 58.8951C30.9099 59.3892 31.4181 59.8713 31.9378 60.3404C35.3693 63.2892 38.7717 66.3028 42.2791 69.1605ZM49.2647 69.3401C52.6959 66.1867 56.0454 62.9456 59.3103 59.6205C65.5119 53.2231 69.5496 45.5452 69.4276 36.4629C69.2436 22.7286 61.7947 15.8776 52.6642 7.02753C51.7294 6.12159 50.3726 4.5334 49.245 3.97785C49.1953 5.35527 49.1498 6.73152 49.2241 8.10924C49.2926 9.37674 49.496 10.663 49.481 11.9314C49.4622 13.5125 49.2268 15.0872 49.2147 16.6739L49.2071 55.1017C49.2133 59.8448 49.3476 64.5985 49.2647 69.3401Z" fill="black"/>
<path d="M38.6389 78.2088C38.9323 78.1852 39.2262 78.172 39.5205 78.1697C49.3089 78.0918 58.1939 81.8184 65.0981 88.722C69.7328 93.3564 73.5802 99.625 75.219 105.999C76.7184 111.831 76.191 119.873 76.1822 126.01L76.1117 150.314C70.4623 150.552 64.803 150.281 59.1513 150.212C52.096 150.125 45.0334 150.179 37.9773 150.18L13.1418 150.198C8.83906 150.198 4.4043 149.969 0.120343 150.281L0.108879 129.585C0.110349 125.414 -0.102758 121.106 0.17649 116.948C0.794363 107.758 4.19384 99.0071 10.3279 92.0815C17.7388 83.7143 27.4537 78.8804 38.6389 78.2088ZM32.2815 138.494C35.5916 141.622 38.9255 144.725 42.283 147.802C41.9064 141.751 42.2603 135.548 42.2924 129.482C42.3382 119.111 42.3315 108.739 42.2724 98.3669L42.2477 89.1429C42.2459 87.6074 42.3579 86.0065 42.2174 84.4795C42.188 84.1594 42.1892 83.9583 41.9758 83.7055C32.1863 91.9245 23.4793 98.2188 22.2638 112.163C21.5222 120.673 23.8873 128.808 29.4011 135.386C30.3053 136.465 31.2844 137.5 32.2815 138.494ZM49.2595 147.749C52.6169 144.409 56.0693 141.165 59.4438 137.842C67.6549 129.34 69.3092 124.911 69.1478 113.114C69.0405 105.263 64.8885 97.6703 59.3527 92.3164C56.3633 89.4251 52.8177 86.5227 49.1857 84.4898C48.9829 87.9048 49.144 91.3631 49.2042 94.7811C49.268 98.3849 49.2227 101.997 49.2239 105.602L49.2595 147.749Z" fill="black"/>
<path d="M132.495 0.459839C138.002 0.596523 143.529 0.371367 149.031 0.625336L149.068 22.1224C149.076 26.2829 149.298 30.6028 148.914 34.7442C147.883 45.8653 142.093 56.1784 133.516 63.2651C122.902 72.0352 111.481 73.6975 98.1754 73.2633C95.437 73.174 92.6713 73.1555 89.9429 72.8985C91.701 70.6566 93.7715 68.6266 95.763 66.5958C98.9229 63.365 102.123 60.1731 105.361 57.0205L130.991 31.4152L138.088 24.3455C139.381 23.0566 140.853 21.7662 141.95 20.3085C141.961 19.4228 141.995 18.5363 142.018 17.6509C142.27 14.3105 142.103 10.8543 142.104 7.50189C135.978 7.40812 129.825 7.22441 123.798 8.53511C112.352 11.011 102.35 17.9134 95.975 27.7359C88.5358 39.3741 89.626 49.4558 89.6322 62.4535C89.6334 65.007 89.3324 70.9388 89.8042 73.0529C89.323 72.7345 88.8494 72.41 88.4082 72.037C84.5825 68.7995 82.8244 63.8809 82.4805 59.0017C82.3283 56.8447 82.4094 54.6401 82.4197 52.4779C82.432 49.8159 82.4505 47.1686 82.7495 44.5202C83.8785 34.5469 88.0734 25.1695 94.756 17.6803C102.023 9.45134 111.765 3.80288 122.518 1.58359C125.809 0.917217 129.15 0.67971 132.495 0.459839Z" fill="black"/>
<path d="M90.0036 89.8616C93.5929 85.81 98.4608 83.7071 103.87 83.26C113.573 82.4577 122.204 87.7678 126.735 96.3564C128.376 99.4658 129.261 103.107 131.962 105.543C134.279 107.633 137.445 108.426 140.245 109.619C142.617 110.629 144.83 111.923 146.806 113.594C151.763 117.786 155.068 123.458 155.644 129.939C156.206 136.257 154.601 142.179 150.539 146.971C146.632 151.303 141.758 153.377 135.958 153.919C125.861 154.841 116.157 149.278 111.746 140.04C110.019 136.409 109.512 132.468 106.709 129.364C104.769 127.216 101.824 126.294 99.2932 125.063C97.6187 124.249 95.9927 123.313 94.5466 122.128C89.4241 117.93 86.2016 112.751 85.4748 106.146C84.8529 100.494 86.4438 94.2431 90.0036 89.8616ZM136.508 138.494L136.755 138.173C136.218 137.156 130.419 131.698 129.176 130.407C127.321 132.339 124.79 135.031 122.769 136.672C124.747 139.695 127.015 142.753 130.027 144.825C132.15 142.677 134.31 140.566 136.508 138.494ZM104.825 105.619C103.121 107.656 99.8693 110.65 97.8495 112.509C100.982 115.291 106.008 116.726 109.617 119.155C111.017 117.683 112.482 116.225 113.98 114.852C110.884 111.817 107.905 108.668 104.825 105.619ZM146.506 128.59C144.14 125.726 141.457 123.446 138.507 121.219C136.603 123.086 134.158 125.838 132.212 127.406L139.833 135.208C141.348 133.588 142.984 132.075 144.578 130.533C145.189 129.941 146.043 129.286 146.506 128.59ZM117.018 111.975C118.124 110.505 119.673 109.218 121.011 107.955C120.521 107.003 119.982 106.053 119.547 105.077C118.128 101.903 116.725 98.7765 114.945 95.7764C112.607 98.0765 110.313 100.47 107.887 102.674L117.018 111.975ZM111.974 92.45C108.871 89.938 105.61 88.4048 101.579 88.8217C99.5605 89.0304 97.936 89.7484 96.2712 90.8472C99.1107 93.7357 101.991 96.5941 104.785 99.5269C107.082 97.1054 109.537 94.7316 111.974 92.45ZM95.1034 108.975C97.3338 106.819 99.5201 104.59 101.8 102.488C99.006 99.6613 96.1335 96.8808 93.4096 93.989C93.1434 94.0966 93.2487 94.0125 93.0872 94.2329C91.3032 96.8815 90.7335 99.9382 91.383 103.107C91.6899 104.604 93.1347 108.539 94.4475 109.258C94.5816 109.332 94.5925 109.326 94.7209 109.35C94.8523 109.227 94.9822 109.108 95.1034 108.975ZM120.659 132.385L124.412 128.699L126.018 127.148C123.058 124.14 120.013 121.184 117.133 118.101C116.054 119.272 114.632 120.945 113.295 121.785C116.773 124.703 118.643 128.43 120.659 132.385ZM129.02 124.178C129.647 123.558 134.045 119.519 134.157 118.956C134.161 118.935 134.15 118.915 134.146 118.895C130.315 117.169 126.433 114.888 123.696 111.628C122.577 112.73 121.384 114.221 120.122 115.121L129.02 124.178ZM150.022 125.856L149.479 124.313C147.997 121.066 145.994 118.821 143.331 116.475L141.558 118.242C144.763 120.447 147.473 122.907 150.022 125.856ZM148.744 132.768C146.838 134.635 144.968 136.627 142.979 138.401L147.512 143.022C148.52 141.266 149.417 139.576 149.486 137.484C149.512 135.844 149.259 134.336 148.744 132.768ZM109.321 125.749C112.788 129.447 113.466 133.113 115.483 137.465L116.952 136.007C117.107 135.832 117.229 135.795 117.208 135.546C117.107 134.338 113.843 128.772 112.997 127.627C112.221 126.576 111.32 125.629 110.405 124.7C110.047 125.048 109.698 125.424 109.321 125.749ZM126.103 147.393C123.591 145.286 121.313 142.646 119.636 139.821C119.067 140.379 118.508 140.955 117.923 141.496C119.451 143.43 124.096 147.575 126.394 147.995C126.567 148.027 126.73 148.059 126.876 147.959C126.623 147.762 126.364 147.578 126.103 147.393ZM124.365 104.809C124.669 104.512 125.163 104.146 125.257 103.719C124.559 100.841 120.471 94.2359 118.021 92.6121C117.88 92.5185 117.856 92.5169 117.718 92.4666C119.567 95.0401 121.086 97.7129 122.349 100.611C122.656 101.316 123.8 104.563 124.298 104.836L124.365 104.809ZM139.985 141.374C138.108 143.209 136.273 145.135 134.333 146.899C137.476 147.842 140.308 148.195 143.264 146.6C143.661 146.383 144.055 146.161 144.446 145.932C142.957 144.415 141.452 142.911 139.985 141.374ZM106.705 122.093C103.504 120.528 100.121 119.13 97.1057 117.214C96.5685 116.873 95.08 115.531 94.533 115.578C97.3832 119.242 101.535 121.177 105.601 123.159L106.705 122.093ZM126.652 108.689C129.818 111.956 133.595 113.726 137.549 115.826C138.187 115.193 138.817 114.548 139.482 113.943C135.42 112.471 130.87 110.759 127.823 107.559L126.652 108.689Z" fill="black"/>
</svg>
