<svg width="215" height="96" viewBox="0 0 215 96" fill="none" xmlns="http://www.w3.org/2000/svg">
<path d="M24.3317 0.721848C30.5716 0.296215 36.2877 2.46171 41.109 6.39558C49.758 13.4523 52.5743 24.6005 49.3556 35.1434C48.1904 38.9603 45.9723 42.6076 46.226 46.7216C46.4435 50.2522 48.4115 53.4077 49.7545 56.5956C50.8921 59.296 51.6684 62.1 51.9444 65.0203C52.6369 72.3463 50.7695 79.5565 45.9964 85.2552C41.3444 90.8096 35.2254 94.3231 27.9964 94.9728C21.2671 95.3725 15.5698 93.1788 10.3494 89.0107C1.2782 81.7382 -2.21798 69.5339 1.62624 58.5612C3.14241 54.2537 5.91578 50.6643 6.11831 45.9283C6.25823 42.6511 4.57686 39.5667 3.48661 36.562C2.76527 34.5741 2.18297 32.5256 1.95017 30.4191C1.12624 22.9568 2.66327 16.2098 7.41196 10.2924C11.476 5.22833 17.8491 1.4376 24.3317 0.721848ZM23.2927 76.976L23.7562 76.9122C24.1374 75.6635 23.775 66.645 23.7962 64.6132C20.7024 64.7032 16.4364 64.8698 13.4414 64.5921C12.6239 68.6073 12.0184 72.8804 12.8226 76.9477C16.3126 76.8963 19.8032 76.9057 23.2927 76.976ZM23.7921 25.2331C20.7374 25.5273 15.6327 25.3651 12.4622 25.2642C12.7923 30.0015 15.7735 35.154 16.7826 39.9835C19.128 39.9054 21.5169 39.8898 23.8632 39.9688C23.7685 35.0567 23.862 30.1446 23.7921 25.2331ZM39.5555 76.9075C39.9235 72.712 39.5578 68.7384 38.9288 64.595C35.8473 64.5921 31.6031 64.8763 28.7292 64.5985L28.6948 76.9592C31.2556 76.8525 33.8297 76.9278 36.3923 76.9469C37.3753 76.9542 38.6098 77.1026 39.5555 76.9075ZM28.6968 40.0553C30.8 39.7449 33.1189 39.935 35.2451 39.9756C35.6119 38.8172 35.9364 37.6214 36.3676 36.4865C37.768 32.7933 39.1437 29.1511 40.1051 25.3116C36.315 25.3145 32.4864 25.428 28.7012 25.2836L28.6968 40.0553ZM40.3494 20.2627C39.8247 15.7669 38.3779 11.9376 34.7165 9.07313C32.8838 7.63927 30.9632 6.92968 28.701 6.49611C28.703 11.0867 28.7633 15.6854 28.6915 20.2751C32.5463 20.1416 36.4923 20.1716 40.3494 20.2627ZM13.0595 20.2263C16.6445 20.2539 20.2518 20.1878 23.8335 20.2992C23.8185 15.7948 23.7018 11.2654 23.7977 6.7639C23.4911 6.63956 23.646 6.65514 23.3344 6.70511C19.7189 7.42998 16.7741 9.44909 14.7435 12.5273C13.785 13.9808 11.7894 18.3104 12.2894 19.9344C12.3402 20.1005 12.3544 20.104 12.4405 20.2257C12.6483 20.2307 12.852 20.2375 13.0595 20.2263ZM15.1727 59.4495H21.2515L23.8317 59.4707C23.8265 54.6885 23.7101 49.8792 23.8315 45.0999C21.9946 45.1902 19.467 45.4133 17.6848 45.0309C18.1889 50.152 16.7133 54.6508 15.1727 59.4495ZM28.7121 59.4536C29.7309 59.4501 36.6266 59.6776 37.1754 59.3107C37.1951 59.2975 37.2021 59.2722 37.2157 59.2528C35.4546 54.8145 34.101 49.888 34.4846 45.0779C32.6695 45.0808 30.4787 45.3389 28.7095 45.0641L28.7121 59.4536ZM44.6672 77.4892L45.4694 75.8096C46.8768 72.0083 47.0431 68.6018 46.7471 64.5906L43.855 64.6112C44.7113 68.9386 44.9538 73.0803 44.6672 77.4892ZM38.0167 82.0624C34.9338 82.0586 31.7791 82.1844 28.703 82.0386L28.698 89.3752C30.9514 88.7558 33.0593 88.1027 34.8106 86.4654C36.1592 85.1597 37.1722 83.7391 38.0167 82.0624ZM11.1986 45.0797C11.0622 50.8234 8.653 54.3266 6.79144 59.4465L9.18328 59.4342C9.45312 59.4157 9.58363 59.4824 9.76793 59.2649C10.6633 58.2084 12.4787 51.1153 12.7089 49.5177C12.9202 48.052 12.944 46.5703 12.9417 45.0923C12.3652 45.0894 11.7726 45.1164 11.1986 45.0797ZM7.50808 75.9081C7.14359 72.2088 7.40285 68.2658 8.3082 64.6491C7.38697 64.6488 6.46017 64.6702 5.53953 64.6444C5.23353 67.421 5.7062 74.461 7.26088 76.6256C7.37816 76.789 7.48633 76.9442 7.68768 76.9789C7.63859 76.6197 7.57422 76.2646 7.50808 75.9081ZM40.5569 40.0961C41.0484 40.0964 41.7518 40.1934 42.1754 39.9233C43.93 37.0414 45.9082 28.4541 45.2033 25.1957C45.1625 25.0076 45.144 24.9873 45.0714 24.8374C44.512 28.3868 43.5999 31.754 42.2945 35.1005C41.9767 35.9148 40.2903 39.4486 40.4799 40.0647L40.5569 40.0961ZM23.827 82.065C20.7941 82.0586 17.7215 82.1582 14.6942 82.0445C16.521 85.3031 18.5704 87.8372 22.2985 88.8952C22.8018 89.0354 23.3068 89.1679 23.8138 89.2934C23.8153 86.8849 23.7924 84.4733 23.827 82.065ZM12.0025 40.0467C10.6304 36.2393 8.97311 32.4221 8.03865 28.4785C7.87228 27.7757 7.73177 25.5085 7.24265 25.1123C6.62566 30.3383 8.48222 35.2002 10.2291 40.0312L12.0025 40.0467ZM39.3009 45.0485C39.2656 50.2046 40.9461 54.6352 42.5055 59.4739C43.5443 59.4683 44.586 59.4471 45.6243 59.4856C43.4667 55.0703 41.1022 50.0726 41.1819 45.0653L39.3009 45.0485Z" fill="#22c55e"/>
<path d="M68.0857 9.43675C71.9905 9.35062 75.9217 9.45791 79.8288 9.46497C80.9226 10.5893 81.8694 11.93 82.8459 13.159L88.1948 19.8891C92.9238 25.8354 97.7827 31.6866 102.454 37.6752C102.313 32.709 102.389 27.7272 102.398 22.7592C102.402 20.4615 102.58 17.9979 102.307 15.7189C102.198 14.8186 101.963 13.7724 101.411 13.0364C100.537 11.8718 98.9955 11.6919 97.6566 11.5326L97.6734 9.44321C102.004 9.5408 106.35 9.46496 110.682 9.46408C110.688 10.1252 110.635 10.7833 110.592 11.4426C109.503 11.666 108.526 11.8815 107.68 12.6719C106.864 13.4344 106.627 14.5199 106.494 15.587C106.166 18.2292 106.509 20.9697 106.487 23.6287C106.447 28.4985 106.359 33.3618 106.373 38.2343C106.383 41.9718 106.519 45.714 106.382 49.4503C105.527 49.4789 104.672 49.4974 103.816 49.5062L101.993 49.4803C100.775 48.2922 99.7127 46.9095 98.6254 45.602L93.0784 38.8715L76.5904 18.8612L76.6069 35.8083C76.6051 38.5941 76.2929 41.826 76.8176 44.5629C76.9508 45.2581 77.2406 45.7455 77.7597 46.2305C78.855 47.2546 80.3561 47.254 81.7571 47.2361L81.7465 49.4777C77.2121 49.4665 72.6466 49.3454 68.1177 49.5594C68.2168 48.8545 68.1507 48.1017 68.1368 47.3901C69.0651 47.1896 70.0384 47.0303 70.8388 46.4865C71.9108 45.7581 72.3755 44.2266 72.6072 43.0021C72.9093 41.4059 72.7688 39.6141 72.7712 37.9909L72.7765 30.0817L72.7847 21.7619C72.79 19.898 72.8797 17.9894 72.6501 16.1381C72.5137 15.0385 72.2571 14.1951 71.608 13.276C70.7433 12.0511 69.4958 11.7901 68.1119 11.5596C68.1263 10.853 68.0989 10.1434 68.0857 9.43675Z" fill="#272727"/>
<path d="M110.735 20.9426C114.185 21.2854 118.817 20.6984 122.32 20.3456L122.371 33.5579C122.37 36.2019 122.102 39.1158 122.538 41.7152C122.703 42.7034 122.975 43.5744 123.685 44.3104C124.737 45.4027 126.38 45.8818 127.866 45.8736C130.364 45.8604 132.379 44.4447 134.072 42.761C134.068 39.4441 134.65 27.2907 133.35 24.977C132.675 23.776 131.207 23.4412 129.977 23.1205L130.039 21.0361C133.892 21.0608 137.889 20.796 141.714 20.3424C141.378 24.3195 141.842 28.3495 141.859 32.3292C141.875 36.129 141.436 40.0006 141.843 43.7881C141.908 44.3912 141.978 44.7067 142.377 45.182C143.315 46.2992 144.481 46.3057 145.832 46.4192L145.83 48.7998C144.819 48.9977 143.811 49.0908 142.785 49.1814C140.74 49.4821 138.587 49.8769 136.523 49.9177C135.892 50.1696 134.892 50.1934 134.199 50.3548C134.079 48.8348 134.092 47.3045 134.076 45.7801C133.126 46.6761 132.165 47.5535 131.065 48.2649C128.079 50.1967 124.168 50.7516 120.712 49.9806C114.461 48.5867 114.796 43.1787 114.812 38.1449L114.838 30.2075C114.832 28.4462 114.931 26.2707 113.896 24.7533C113.106 23.5958 111.981 23.4268 110.7 23.1722L110.735 20.9426Z" fill="#272727"/>
<path d="M136.523 49.9176C136.606 49.8251 136.683 49.7275 136.77 49.6396C137.713 48.689 141.463 49.1942 142.785 49.1813C140.74 49.482 138.587 49.8768 136.523 49.9176Z" fill="black"/>
<path d="M182.079 19.9611C185.49 19.6604 188.753 20.3738 191.954 21.4961C191.699 23.9611 191.94 26.6654 191.971 29.1545L189.29 29.1536C189.047 27.4402 188.617 25.5549 187.401 24.2545C186.422 23.2083 184.918 22.8074 183.527 22.7865C181.918 22.7627 180.124 23.1871 178.957 24.3609C178.318 25.004 177.867 25.8538 177.883 26.7756C177.947 30.4053 184.079 31.5863 186.811 32.748C188.451 33.4449 190.09 34.3268 191.356 35.6022C192.854 37.1116 193.554 39.1013 193.538 41.2066C193.521 43.5766 192.72 45.7466 191.01 47.4291C188.29 50.1081 184.662 50.6357 181.004 50.6258C177.676 50.3536 174.725 49.5043 171.615 48.3409C171.711 45.7489 171.545 43.0946 171.541 40.4946C172.419 40.4447 173.296 40.4726 174.175 40.4902C174.468 42.502 175.281 44.4215 176.813 45.8077C178.549 47.3771 181.04 47.8477 183.331 47.6907C184.533 47.6084 186.202 46.8879 186.957 45.9194C187.493 45.2322 187.715 44.2324 187.579 43.3762C187.096 40.3547 181.561 39.0126 179.215 38.0161C177.841 37.4329 176.497 36.7574 175.318 35.8335C173.503 34.4123 172.208 32.4564 171.953 30.1245C171.705 27.8538 172.37 25.3535 173.832 23.5813C175.901 21.0754 178.971 20.2339 182.079 19.9611Z" fill="#272727"/>
<path d="M156.997 13.3282L159.345 13.3112C159.316 15.852 159.429 18.3897 159.419 20.9296C162.225 20.8326 165.048 20.9008 167.855 20.917C167.773 21.9173 167.82 22.9214 167.843 23.9235C164.986 23.9241 162.123 24.0034 159.265 24.0166C159.206 27.4576 159.211 30.9011 159.193 34.3427C159.18 36.9605 158.788 40.2921 159.499 42.8015C159.82 43.9353 160.491 44.8947 161.546 45.452C163.624 46.5499 166.366 45.7604 168.448 45.0575L169.09 47.161C168.314 47.7178 167.448 48.1554 166.612 48.6175C164.729 49.5614 162.689 50.2034 160.577 50.2974C158.194 50.4035 155.299 50.0737 153.497 48.3588C152.581 47.4867 152.122 46.4811 151.857 45.2621C151.27 42.569 151.569 39.4344 151.571 36.6863L151.546 24.0037C149.987 23.9949 148.427 24.0034 146.869 24.029L146.845 21.9808C150.671 20.8444 153.191 19.071 155.448 15.7776C155.942 15.0575 156.332 14.2718 156.832 13.5592L156.997 13.3282Z" fill="#272727"/>
<path d="M165.129 67.2799C166.256 67.1902 167.53 67.3304 168.588 67.7211C172.477 69.1558 172.421 72.8243 172.41 76.3002L172.388 81.5286C172.388 82.6896 172.31 83.9757 172.844 85.0436C173.159 85.6738 173.595 85.983 174.261 86.1758C174.468 86.2358 174.672 86.279 174.866 86.3766C175.173 86.5312 175.166 86.6173 175.281 86.9269C175.231 87.3043 175.187 87.5398 175 87.8807C173.279 88.0583 166.942 88.1741 165.383 87.8787C164.926 87.7923 164.825 87.7214 164.579 87.3343C164.799 86.3992 165.81 86.4651 166.406 85.963C166.89 85.5541 167.114 84.7176 167.219 84.1235C167.539 82.3099 167.509 75.6405 167.21 73.7334C167.099 73.023 166.877 72.1673 166.44 71.5812C166.018 71.0147 165.093 70.6799 164.419 70.5879C162.54 70.3319 160.535 71.3554 159.073 72.4639L158.91 72.5894L158.9 73.8031C158.893 75.5923 158.554 84.0474 159.093 84.9909C159.637 85.9416 160.783 86.0668 161.443 86.8887C161.538 87.3234 161.519 87.4189 161.394 87.8496C160.691 88.2055 152.648 87.9666 151.278 87.9651C151.227 87.448 151.09 86.864 151.368 86.4004C151.853 85.9857 152.299 86.2143 152.846 86.0533C153.099 85.9786 153.22 85.8484 153.356 85.6362C153.938 84.7273 154.024 73.9489 153.671 72.6003C153.44 71.7126 152.959 71.1861 152.189 70.7173C151.875 70.5262 151.624 70.3683 151.364 70.1111C151.298 69.7734 151.305 69.5444 151.363 69.2055C153.123 68.4404 157.092 67.5438 159.03 67.319C158.896 68.4824 158.925 69.6643 158.797 70.834C160.663 68.8193 162.328 67.6344 165.129 67.2799Z" fill="#272727"/>
<path d="M117.778 67.3131C119.6 67.1832 121.641 67.406 123.077 68.6423C123.919 69.3672 124.474 70.3601 124.759 71.4262C125.644 74.7323 124.903 79.9898 125.165 83.6059C125.388 86.665 126.062 85.1829 127.559 86.4865C127.828 86.9351 127.718 87.4448 127.682 87.9445C124.309 87.983 120.936 87.9868 117.562 87.9566C117.544 87.4516 117.492 86.9833 117.678 86.5021C118.088 86.09 118.457 86.1688 118.963 86.0051C119.334 85.8848 119.547 85.6362 119.685 85.2799C120.294 83.7058 120.233 73.8528 119.504 72.2881C119.171 71.5738 118.6 71.0165 117.846 70.7681C115.725 70.0703 113.526 71.3516 111.715 72.3204L111.698 74.7514C111.723 76.2916 111.439 84.3034 111.849 85.0306C112.39 85.9895 113.602 86.1047 114.275 86.9304C114.357 87.384 114.317 87.4239 114.12 87.8478C112.187 88.2655 106.405 87.9674 104.118 87.9595C104.086 87.4736 104.021 87.0109 104.164 86.5371C104.578 86.1141 104.871 86.0876 105.428 85.9715C105.845 85.8845 106.056 85.7558 106.267 85.3693C106.874 84.2608 106.811 73.3507 106.328 72.1411C106.044 71.4295 105.652 71.1053 104.961 70.8034C104.641 70.664 104.416 70.5773 104.165 70.3263C104.01 69.9192 104.074 69.6067 104.134 69.1902C104.9 68.6887 110.411 67.5779 111.764 67.2513C111.612 68.4718 111.607 69.7134 111.567 70.9418C113.391 68.8589 114.898 67.6056 117.778 67.3131Z" fill="#272727"/>
<path d="M68.2041 59.582C75.3902 59.7405 82.6119 59.5668 89.803 59.5979L89.8403 66.7625C89.3035 66.6473 88.7765 66.6664 88.2295 66.6694C87.8841 65.3542 87.5566 64.1047 86.5131 63.1482C84.4382 61.2464 79.6912 61.4495 77.0299 61.5259C77.0654 65.3078 77.3732 69.3046 77.0622 73.0635C79.1007 72.9239 82.1339 73.4301 83.9332 72.4151C84.9255 71.8554 84.9502 71.2243 85.2292 70.2346C85.2797 70.055 85.27 69.8478 85.4617 69.7705C85.8735 69.6041 86.5737 69.6844 86.9658 69.869C87.3694 71.9019 87.0413 75.8863 87.019 78.1388C87.0278 78.2855 86.9825 78.4339 86.954 78.5777C86.4467 78.8472 85.778 78.7917 85.2136 78.8114C85.1101 77.7567 85.0763 76.8014 84.2577 76.0245C82.7183 74.5638 79.0407 75.1218 77.0787 75.1638C77.0648 77.2432 76.5651 84.389 77.8361 85.6444C78.5113 86.3111 80.4702 86.2461 81.4146 86.3143C81.3738 86.8557 81.3676 87.4007 81.3514 87.9433L68.3567 87.9792C68.3223 87.4451 68.3208 86.9069 68.3076 86.3716C69.1944 86.3096 70.7033 86.254 71.3188 85.5403C71.6789 85.1229 71.6994 84.2346 71.74 83.7029C71.969 80.7029 71.8056 77.5747 71.8226 74.558C71.8385 71.7778 72.1845 65.383 71.6592 63.023C71.2418 61.1482 69.3358 61.6423 68.1462 60.9324C68.1983 60.4841 68.1959 60.0326 68.2041 59.582Z" fill="#272727"/>
<path d="M137.493 67.2864C139 67.2235 140.487 67.2517 141.935 67.7255C145.98 69.0503 146.101 72.9877 146.106 76.5436C146.105 78.3067 146.094 80.0697 146.073 81.8325C146.069 82.919 145.95 84.2447 146.473 85.2309C147.366 85.9522 148.321 85.2632 149.308 85.4319C149.576 85.4778 149.536 85.5136 149.685 85.717C149.637 86.0692 149.574 86.3323 149.348 86.6183C148.498 87.6929 146.636 88.1435 145.322 88.3199C144.289 88.4587 143.041 88.4875 142.188 87.7852C141.405 87.1397 141.203 86.1873 141.126 85.227L141.111 85.0286C140.041 86.4593 138.75 87.5557 137.018 88.0924C134.98 88.7241 133.13 88.3714 131.29 87.3972C130.534 86.7605 129.915 85.9243 129.671 84.9563C129.33 83.5971 129.609 82.0489 130.366 80.8763C132.475 77.6103 137.652 76.7964 141.131 76.0048C141.08 74.1018 141.297 71.4951 139.914 70.013C139.378 69.4383 138.653 69.0968 137.863 69.0841C137.034 69.0709 136.212 69.4186 135.62 69.9933C134.407 71.1694 134.402 72.8596 134.374 74.4284C133.285 74.4372 132.192 74.4669 131.106 74.3831C130.926 74.1588 130.977 74.279 130.939 73.9542C130.769 72.5062 131.502 70.7699 132.42 69.6797C133.748 68.1035 135.514 67.4986 137.493 67.2864ZM135.696 84.9422C136.773 85.3361 137.628 85.3799 138.694 84.8963C139.553 84.5066 140.341 83.8658 141.09 83.2982C141.107 82.3384 141.388 78.6244 140.951 77.9513L140.63 77.9904C138.564 78.3663 136.179 79.0559 134.931 80.8913C134.494 81.533 134.292 82.2494 134.47 83.0163C134.653 83.8005 135.118 84.4034 135.696 84.9422Z" fill="#272727"/>
<path d="M204.703 67.2737C204.902 67.2514 205.098 67.2373 205.298 67.2338C207.697 67.192 209.978 67.5136 211.763 69.3078C213.769 71.3231 214.172 74.0718 214.15 76.7834C209.738 76.844 205.327 76.8805 200.914 76.8925C200.919 78.7111 201.027 80.4801 201.995 82.0845C202.805 83.4293 204.062 84.2905 205.591 84.623C208.72 85.3038 211.11 84.0295 213.605 82.3661L214.702 83.3496C212.662 85.7644 210.691 87.722 207.444 88.2614C204.723 88.7129 201.697 88.1847 199.462 86.5189C197.484 85.0454 196.362 82.7832 195.999 80.3769C195.515 77.1662 196.13 73.7058 198.103 71.0791C199.793 68.8308 201.934 67.6567 204.703 67.2737ZM200.866 74.8516C202.52 74.7535 204.183 74.8075 205.839 74.8261L209.399 74.7782C209.401 73.1232 209.179 71.4275 207.928 70.2091C207.128 69.4307 206.083 69.098 204.98 69.1306C204.891 69.1329 204.802 69.1382 204.714 69.1421C203.408 69.5342 202.497 70.2029 201.826 71.4154C201.218 72.5121 201.01 73.6294 200.866 74.8516Z" fill="#272727"/>
<path d="M185.95 67.2831C188.47 67.0561 190.999 67.4383 193.213 68.6796C193.108 70.4389 193.165 72.2152 193.175 73.9774C192.441 73.9298 191.704 73.9745 190.969 73.9997C190.837 73.5068 190.718 72.9947 190.54 72.5156C190.115 71.3698 189.327 70.0811 188.166 69.5638C187.144 69.1082 185.858 69.3801 184.876 69.8181C183.281 70.5291 182.128 71.9386 181.533 73.5582C180.696 75.8366 180.811 78.8463 181.882 81.0271C182.704 82.7002 184.118 83.9839 185.914 84.5224C188.175 85.1993 190.18 84.4618 192.138 83.376L193.755 82.339L194.793 83.3745C194.698 83.5115 194.602 83.647 194.504 83.7811C192.8 86.0785 190.169 87.8784 187.313 88.3037C184.729 88.6885 181.904 88.0956 179.812 86.4983C177.756 84.9289 176.54 82.5147 176.219 79.9739C175.81 76.8675 176.665 73.7266 178.591 71.2552C180.496 68.8457 182.941 67.6496 185.95 67.2831Z" fill="#272727"/>
<path d="M98.599 67.4006C98.8582 67.3486 99.0364 67.3451 99.298 67.3854C99.577 68.2722 99.3735 69.8357 99.3718 70.7934L99.3627 79.3595C99.3624 81.2672 99.2286 83.3057 99.5805 85.1829C99.6472 85.2508 99.7148 85.3172 99.7807 85.3863C100.338 85.9718 101.013 86.2164 101.743 86.5309C101.867 86.9304 101.794 87.3657 101.767 87.7775C101.303 88.1608 93.1046 87.9736 91.8553 87.9724L91.5969 87.9316C91.5208 87.7934 91.5011 87.7752 91.4591 87.5979C91.3709 87.2276 91.3976 86.8078 91.5781 86.4754C92.0846 86.0844 92.4367 86.1191 93.0408 86.0033C93.4323 85.928 93.6831 85.7522 93.8862 85.4057C94.552 84.269 94.4067 73.5285 94.0173 72.2387C93.5996 70.8557 92.5037 71.0961 91.6104 70.3445C91.3141 70.0952 91.3647 69.7469 91.3333 69.3957C92.0261 68.6481 97.3788 67.6837 98.599 67.4006Z" fill="#272727"/>
<path d="M96.0642 57.744C97.5865 57.2534 99.2214 58.0714 99.7417 59.5835C100.262 61.0958 99.4766 62.7466 97.9748 63.2966C96.9769 63.662 95.859 63.4597 95.0524 62.7675C94.2458 62.0752 93.8763 61.0012 94.0862 59.9591C94.2961 58.9174 95.0527 58.0699 96.0642 57.744Z" fill="#272727"/>
</svg>
