<svg width="194" height="96" viewBox="0 0 194 96" fill="none" xmlns="http://www.w3.org/2000/svg">
<path d="M24.3317 0.721848C30.5716 0.296215 36.2877 2.46171 41.109 6.39558C49.758 13.4523 52.5743 24.6005 49.3556 35.1434C48.1904 38.9603 45.9723 42.6076 46.226 46.7216C46.4435 50.2522 48.4115 53.4077 49.7545 56.5956C50.8921 59.296 51.6684 62.1 51.9444 65.0203C52.6369 72.3463 50.7695 79.5565 45.9964 85.2552C41.3444 90.8096 35.2254 94.3231 27.9964 94.9728C21.2671 95.3725 15.5698 93.1788 10.3494 89.0107C1.2782 81.7382 -2.21798 69.5339 1.62624 58.5612C3.14241 54.2537 5.91578 50.6643 6.11831 45.9283C6.25823 42.6511 4.57686 39.5667 3.48661 36.562C2.76527 34.5741 2.18297 32.5256 1.95017 30.4191C1.12624 22.9568 2.66327 16.2098 7.41196 10.2924C11.476 5.22833 17.8491 1.4376 24.3317 0.721848ZM23.2927 76.976L23.7562 76.9122C24.1374 75.6635 23.775 66.645 23.7962 64.6132C20.7024 64.7032 16.4364 64.8698 13.4414 64.5921C12.6239 68.6073 12.0184 72.8804 12.8226 76.9477C16.3126 76.8963 19.8032 76.9057 23.2927 76.976ZM23.7921 25.2331C20.7374 25.5273 15.6327 25.3651 12.4622 25.2642C12.7923 30.0015 15.7735 35.154 16.7826 39.9835C19.128 39.9054 21.5169 39.8898 23.8632 39.9688C23.7685 35.0567 23.862 30.1446 23.7921 25.2331ZM39.5555 76.9075C39.9235 72.712 39.5578 68.7384 38.9288 64.595C35.8473 64.5921 31.6031 64.8763 28.7292 64.5985L28.6948 76.9592C31.2556 76.8525 33.8297 76.9278 36.3923 76.9469C37.3753 76.9542 38.6098 77.1026 39.5555 76.9075ZM28.6968 40.0553C30.8 39.7449 33.1189 39.935 35.2451 39.9756C35.6119 38.8172 35.9364 37.6214 36.3676 36.4865C37.768 32.7933 39.1437 29.1511 40.1051 25.3116C36.315 25.3145 32.4864 25.428 28.7012 25.2836L28.6968 40.0553ZM40.3494 20.2627C39.8247 15.7669 38.3779 11.9376 34.7165 9.07313C32.8838 7.63927 30.9632 6.92968 28.701 6.49611C28.703 11.0867 28.7633 15.6854 28.6915 20.2751C32.5463 20.1416 36.4923 20.1716 40.3494 20.2627ZM13.0595 20.2263C16.6445 20.2539 20.2518 20.1878 23.8335 20.2992C23.8185 15.7948 23.7018 11.2654 23.7977 6.7639C23.4911 6.63956 23.646 6.65514 23.3344 6.70511C19.7189 7.42998 16.7741 9.44909 14.7435 12.5273C13.785 13.9808 11.7894 18.3104 12.2894 19.9344C12.3402 20.1005 12.3544 20.104 12.4405 20.2257C12.6483 20.2307 12.852 20.2375 13.0595 20.2263ZM15.1727 59.4495H21.2515L23.8317 59.4707C23.8265 54.6885 23.7101 49.8792 23.8315 45.0999C21.9946 45.1902 19.467 45.4133 17.6848 45.0309C18.1889 50.152 16.7133 54.6508 15.1727 59.4495ZM28.7121 59.4536C29.7309 59.4501 36.6266 59.6776 37.1754 59.3107C37.1951 59.2975 37.2021 59.2722 37.2157 59.2528C35.4546 54.8145 34.101 49.888 34.4846 45.0779C32.6695 45.0808 30.4787 45.3389 28.7095 45.0641L28.7121 59.4536ZM44.6672 77.4892L45.4694 75.8096C46.8768 72.0083 47.0431 68.6018 46.7471 64.5906L43.855 64.6112C44.7113 68.9386 44.9538 73.0803 44.6672 77.4892ZM38.0167 82.0624C34.9338 82.0586 31.7791 82.1844 28.703 82.0386L28.698 89.3752C30.9514 88.7558 33.0593 88.1027 34.8106 86.4654C36.1592 85.1597 37.1722 83.7391 38.0167 82.0624ZM11.1986 45.0797C11.0622 50.8234 8.653 54.3266 6.79144 59.4465L9.18328 59.4342C9.45312 59.4157 9.58363 59.4824 9.76793 59.2649C10.6633 58.2084 12.4787 51.1153 12.7089 49.5177C12.9202 48.052 12.944 46.5703 12.9417 45.0923C12.3652 45.0894 11.7726 45.1164 11.1986 45.0797ZM7.50808 75.9081C7.14359 72.2088 7.40285 68.2658 8.3082 64.6491C7.38697 64.6488 6.46017 64.6702 5.53953 64.6444C5.23353 67.421 5.7062 74.461 7.26088 76.6256C7.37816 76.789 7.48633 76.9442 7.68768 76.9789C7.63859 76.6197 7.57422 76.2646 7.50808 75.9081ZM40.5569 40.0961C41.0484 40.0964 41.7518 40.1934 42.1754 39.9233C43.93 37.0414 45.9082 28.4541 45.2033 25.1957C45.1625 25.0076 45.144 24.9873 45.0714 24.8374C44.512 28.3868 43.5999 31.754 42.2945 35.1005C41.9767 35.9148 40.2903 39.4486 40.4799 40.0647L40.5569 40.0961ZM23.827 82.065C20.7941 82.0586 17.7215 82.1582 14.6942 82.0445C16.521 85.3031 18.5704 87.8372 22.2985 88.8952C22.8018 89.0354 23.3068 89.1679 23.8138 89.2934C23.8153 86.8849 23.7924 84.4733 23.827 82.065ZM12.0025 40.0467C10.6304 36.2393 8.97311 32.4221 8.03865 28.4785C7.87228 27.7757 7.73177 25.5085 7.24265 25.1123C6.62566 30.3383 8.48222 35.2002 10.2291 40.0312L12.0025 40.0467ZM39.3009 45.0485C39.2656 50.2046 40.9461 54.6352 42.5055 59.4739C43.5443 59.4683 44.586 59.4471 45.6243 59.4856C43.4667 55.0703 41.1022 50.0726 41.1819 45.0653L39.3009 45.0485Z" />
<path d="M68.0859 27.0333C71.9907 26.9472 75.9219 27.0545 79.8291 27.0615C80.9228 28.1859 81.8696 29.5265 82.8461 30.7555L88.195 37.4857C92.924 43.4319 97.7829 49.2832 102.454 55.2717C102.313 50.3055 102.39 45.3238 102.398 40.3558C102.402 38.058 102.58 35.5945 102.307 33.3155C102.199 32.4152 101.964 31.369 101.411 30.633C100.538 29.4683 98.9958 29.2885 97.6568 29.1291L97.6736 27.0398C102.004 27.1374 106.351 27.0615 110.683 27.0606C110.688 27.7217 110.635 28.3799 110.592 29.0392C109.503 29.2626 108.526 29.4781 107.68 30.2685C106.864 31.031 106.627 32.1165 106.494 33.1835C106.166 35.8258 106.509 38.5663 106.488 41.2253C106.448 46.0951 106.36 50.9584 106.373 55.8308C106.383 59.5683 106.519 63.3106 106.382 67.0469C105.527 67.0754 104.672 67.0939 103.816 67.1028L101.993 67.0769C100.776 65.8888 99.713 64.506 98.6257 63.1986L93.0786 56.4681L76.5907 36.4578L76.6071 53.4049C76.6054 56.1906 76.2932 59.4225 76.8179 62.1595C76.951 62.8547 77.2409 63.342 77.76 63.827C78.8552 64.8511 80.3564 64.8505 81.7573 64.8326L81.7468 67.0742C77.2124 67.0631 72.6468 66.942 68.118 67.156C68.217 66.4511 68.1509 65.6983 68.1371 64.9866C69.0654 64.7862 70.0386 64.6269 70.839 64.0831C71.9111 63.3547 72.3758 61.8232 72.6074 60.5986C72.9096 59.0025 72.7691 57.2106 72.7714 55.5874L72.7767 47.6783L72.785 39.3584C72.7902 37.4945 72.8799 35.5859 72.6503 33.7347C72.5139 32.635 72.2573 31.7917 71.6083 30.8725C70.7435 29.6477 69.496 29.3866 68.1121 29.1562C68.1265 28.4495 68.0992 27.7399 68.0859 27.0333Z" fill="#272727"/>
<path d="M110.735 38.5392C114.186 38.8819 118.817 38.2949 122.32 37.9422L122.371 51.1544C122.371 53.7985 122.103 56.7124 122.538 59.3117C122.703 60.3 122.976 61.1709 123.685 61.907C124.738 62.9993 126.38 63.4784 127.866 63.4702C130.364 63.4569 132.38 62.0413 134.072 60.3576C134.069 57.0407 134.65 44.8872 133.35 42.5736C132.675 41.3725 131.207 41.0377 129.978 40.717L130.039 38.6327C133.893 38.6574 137.89 38.3925 141.715 37.939C141.378 41.916 141.842 45.946 141.859 49.9258C141.875 53.7256 141.436 57.5971 141.843 61.3846C141.908 61.9878 141.979 62.3032 142.377 62.7785C143.315 63.8958 144.481 63.9023 145.832 64.0157L145.83 66.3964C144.819 66.5942 143.811 66.6874 142.786 66.7779C140.74 67.0786 138.588 67.4734 136.523 67.5143C135.892 67.7662 134.892 67.79 134.2 67.9514C134.079 66.4314 134.092 64.9011 134.077 63.3767C133.127 64.2726 132.165 65.1501 131.065 65.8614C128.079 67.7932 124.168 68.3482 120.712 67.5772C114.462 66.1833 114.796 60.7753 114.812 55.7415L114.838 47.8041C114.832 46.0427 114.931 43.8672 113.896 42.3499C113.106 41.1923 111.982 41.0233 110.701 40.7688L110.735 38.5392Z" fill="#272727"/>
<path d="M136.523 67.5142C136.606 67.4216 136.683 67.324 136.771 67.2361C137.713 66.2855 141.463 66.7908 142.786 66.7779C140.74 67.0786 138.588 67.4733 136.523 67.5142Z" fill="black"/>
<path d="M182.079 37.5576C185.49 37.2569 188.753 37.9703 191.954 39.0926C191.699 41.5577 191.94 44.2619 191.971 46.7511L189.29 46.7502C189.047 45.0368 188.617 43.1514 187.401 41.851C186.422 40.8049 184.918 40.4039 183.527 40.383C181.918 40.3592 180.124 40.7837 178.957 41.9574C178.318 42.6006 177.867 43.4504 177.883 44.3722C177.947 48.0018 184.079 49.1829 186.811 50.3446C188.451 51.0415 190.09 51.9233 191.356 53.1988C192.854 54.7082 193.554 56.6979 193.538 58.8031C193.521 61.1732 192.72 63.3431 191.01 65.0257C188.29 67.7047 184.662 68.2323 181.004 68.2223C177.676 67.9501 174.725 67.1009 171.615 65.9375C171.711 63.3455 171.545 60.6911 171.541 58.0912C172.419 58.0412 173.296 58.0691 174.175 58.0868C174.468 60.0985 175.281 62.018 176.813 63.4043C178.549 64.9736 181.04 65.4442 183.331 65.2873C184.533 65.205 186.202 64.4845 186.957 63.516C187.493 62.8287 187.715 61.829 187.579 60.9727C187.096 57.9513 181.561 56.6091 179.215 55.6126C177.841 55.0295 176.497 54.354 175.318 53.4301C173.503 52.0089 172.208 50.053 171.953 47.7211C171.705 45.4504 172.37 42.9501 173.832 41.1779C175.901 38.672 178.971 37.8304 182.079 37.5576Z" fill="#272727"/>
<path d="M156.997 30.9248L159.345 30.9077C159.317 33.4486 159.43 35.9862 159.42 38.5262C162.225 38.4292 165.048 38.4974 167.855 38.5135C167.773 39.5138 167.82 40.518 167.843 41.52C164.987 41.5206 162.124 41.6 159.265 41.6132C159.206 45.0541 159.211 48.4977 159.193 51.9392C159.18 54.5571 158.788 57.8887 159.499 60.3981C159.82 61.5318 160.491 62.4913 161.546 63.0486C163.624 64.1465 166.367 63.3569 168.449 62.6541L169.091 64.7576C168.314 65.3143 167.448 65.752 166.612 66.2141C164.729 67.1579 162.689 67.7999 160.578 67.894C158.195 68.0001 155.299 67.6703 153.497 65.9554C152.581 65.0833 152.123 64.0777 151.857 62.8587C151.27 60.1656 151.569 57.0309 151.571 54.2828L151.546 41.6003C149.987 41.5915 148.428 41.6 146.869 41.6256L146.846 39.5773C150.672 38.4409 153.191 36.6676 155.449 33.3742C155.942 32.654 156.332 31.8683 156.833 31.1558L156.997 30.9248Z" fill="#272727"/>
</svg>
